<?xml version="1.0" encoding="UTF-8"?>
<svg id="Capa_1" data-name="Capa 1" xmlns="http://www.w3.org/2000/svg" viewBox="0 0 112.44 83.5">
  <defs>
    <style>
      .cls-1 {
        fill: #eebbbd;
      }

      .cls-2 {
        fill: #5f1023;
      }
    </style>
  </defs>
  <path class="cls-1" d="m112.38,24.85c-.17-1.5-.14-3-.35-4.5-.13-.94-.54-1.82-.49-2.79,0-.16-.11-.34-.21-.49-.27-.39-.31-.84-.26-1.28.16-1.57.27-3.5-.95-4.37.16-.17-.16-.49-.35-.44.17-.78-.44-1.54-.41-2.35,0-.1-.08-.21-.15-.29-.77-.91-1.1-2.01-1.41-3.13-.26-.93-.07-2.26-.94-2.73.27-.28-.2-.74-.49-.94-.22-.16-.47.08-.38.36.16.5-.05.59-.49.59-.28,0-.69-.09-.83.16-.14.25.27.54.55.47-.23.46.4.96.27,1.5-.03.13-.02.27.05.38.57.92,1.33,1.77,1.31,2.97-.01.79.03,1.72.61,2.25-.48.31.41.8.63,1.33-.25.04-.17.43-.19.68-.03.37.04.74-.09,1.11-.28.81-1.22,2.12-.45,2.52-.3.4-.08.92.1,1.33-.23.05-.22.65.03.66-.04.14,0,.28.02.42-.54.01-.76,1.56-.19,1.59-.03.18-.07.38.02.54-.55.12.09.99,0,1.49-.12.74-.33,1.44-.73,2.09-.06-.03-.15.14-.09.17-.02.04-.1.08-.07.12-.36.14-.75.4-.89.76-.52-.37-1.05.5-1.41,1.02-.26.37-.41.79-.61,1.18-.63,1.2-1.52,3.81-.21,3.74,0,.09-.04.21.04.25-.22.3-.3.87-.02,1.11-.15.16-.16.44-.09.65-.19.04-.35.42-.21.55-.05.06-.04.16-.04.23-.41-.14-.1.59.05.8.14.2.72.28.63-.01.14.01.29.04.42-.02-.02.21.35.13.32-.02.21.02.41-.13.61-.2-.03.16.25.04.38.04.25,0,.46.01.66.03.14.04.28.06.42.08.1.02.19.04.27.04-.04-.01-.08-.02-.13-.03.15,0,.28-.04.41-.14,0,0,0,0,0,0-.05.11-.15.16-.28.16.65.18.98.57,1.21,1.34.26.9.11,1.83.11,2.77,0,.35-.08.6-.22.94-.13.33-.06.71-.05,1.06.03.99.35,2-.32,2.87-.48.62-.97,1.24-1.5,1.84-.58.66-1.37,1.05-1.94,1.68-.99,1.11-1.96,2.73-1.11,3.9-.08.06-.08.25,0,.31-.08.15-.04.37.05.51-.33.07.02.52.09.75.1.33.14.61.32.98-.76.11-.85,1.25-.66,1.89-.52.37-.49,1.08-.29,1.71-.36.05-.84.13-.89.6-.07.8-.73,1.28-.96,1.98-.39-.17-.54.66-1.09.46-.19-.07-.57.05-.69.4-.06.17-.2.29-.4.32-.71.09-1.34.44-2.02.64-.61.18-.97.63-1.29,1.16-.45.73-.88,1.48-1.37,2.19-.81-.58-1.58-1.2-2.5-1.6-1.33-.58-2.68-.66-3.96.25,0,0,0,0,0,0,.43-.63.85-1.27,1.25-1.93.56-.92,1.08-1.88,1.57-2.86.23-.47.35-.94.33-1.3-.03-.47-.1-.87.18-1.6.25-.65.41-1.29.78-1.98.12-.22.2-.47.27-.69.13-.45.23-.9.33-1.35.11-.48.18-.94.03-1.18-.06-.1-.15-.14-.23-.18-.23-.11-.47-.17-.68-.31-.13-.09-.23-.25-.31-.42-.05-.09-.03-.26-.07-.37-.06-.2-.12-.38-.19-.56-.13-.33-.27-.66-.41-.98-.1-.23-.22-.43-.31-.67-.17-.45-.31-.97-.83-.77-.27.1-.44.16-.67.67-.08.18-.15.37-.23.55-.23.47-.46.94-.7,1.39-.24.47-.49.92-.75,1.37-.4.7-.82,1.37-1.23,2.03-.4.65-.79,1.29-1.2,1.91-.47.72-.95,1.41-1.43,2.09-.44.61-.87,1.22-1.32,1.8-.18.24-.36.48-.55.71-.22.26-.44.52-.67.77,0,0,0,0,0,0-.15-.16-.31-.22-.49-.15-.23.09-.24.04-.17-.28,0-.04,0-.09.01-.13.01-.17.06-.19.16-.09.13.15.39.08.46-.11,0-.02,0-.05,0-.07-.05-.23-.02-.36.13-.32.25.07.43-.03.63-.23.18-.18.34-.49.28-.84-.03-.19,0-.29.09-.39.12-.15.23-.32.3-.52,0-.02,0-.05-.02-.07-.13-.14-.18-.24-.14-.41.01-.05.02-.16-.02-.2-.04-.04-.09.01-.12.04-.07.06-.13.12-.08.31.05.18-.09.38-.22.34-.02,0-.06-.08-.05-.1.04-.23.09-.47.14-.7,0-.05.04-.1.02-.14-.02-.04-.06,0-.09.01-.29.1-.52.44-.84.41-.05,0-.1.07-.14.12-.13.2-.28.25-.46.2-.06-.02-.13-.02-.18,0-.09.04-.13.11-.04.26.03.05.04.18.02.25,0,.04-.08.06-.12.05-.04,0-.08-.05-.11-.08-.13-.11-.26-.41-.23-.54.05-.22.17-.26.3-.3.29-.1.58-.18.85-.35.25-.15.47-.41.71-.61.06-.05.15-.12.21-.1.13.04.23-.01.31-.14.04-.05.1-.06.15-.1.1-.07.2-.13.29-.21.09-.09.15-.5.08-.65-.04-.07-.14-.15-.18-.12-.09.07-.15.2-.23.3-.04.05-.08.11-.12.13-.18.06-.37.06-.49.32-.02.04-.05.06-.08.07-.31.15-.64.24-.89.58,0,.01-.02.02-.03.02-.15-.12-.27-.1-.41.05-.07.07-.23-.04-.33-.12-.23-.18-.32-.17-.48.08-.03.04-.09.08-.12.06-.07-.03-.12-.37-.08-.49.06-.21.15-.27.26-.19.05.03.14.08.17,0,.03-.08-.04-.2-.06-.29,0-.01-.02-.03-.02-.04-.12-.1-.12-.25-.08-.41.01-.05.03-.1.02-.15-.01-.16,0-.23.12-.18.08.03.1-.04.04-.16-.03-.06-.05-.12-.08-.18-.08-.14-.14-.01-.19.04-.04.04-.1.17-.09.19.1.24-.03.18-.08.21-.09.04-.16-.05-.22-.18-.01-.03-.04-.08-.07-.07-.02.01-.02.08-.02.12-.01.18-.01.36-.04.53,0,.07-.06.18-.09.17-.05-.01-.1-.09-.13-.16-.03-.06-.02-.16-.04-.24-.02-.09-.03-.17-.06-.25-.04-.14-.06-.11-.1-.01-.15.35-.15.35-.37.1-.02-.03-.04-.06-.06-.08-.1-.11-.2-.12-.27.04-.08.19-.15.22-.27.08-.04-.05-.12-.04-.17,0-.18.13-.32.07-.44-.19.04-.14.09-.28.14-.41.32-.77,1.56-1.58,1-2.3.59-.24,1.11-1.04.93-1.72.03-.06.07-.12.11-.16.07-.09.05-.17-.02-.27-.05-.09-.1-.15-.15-.19.11-.21.09-.54.05-.8,1.1.01.17-1.56.08-2.27-.2-1.48-1.74-2.39-3.27-2.34-1.81.05-3.62,0-5.42-.36-1.01-.2-2.05-.24-3.07.16-.84.33-1.74.5-2.59.8-1.08.38-2.44.75-2.82,1.81-.08-.03-.14.1-.18.17-.12-.16-.46.12-.35.27-.05,0-.1.04-.13.09-.09-.15-.29-.09-.45.05-.3-.06-.61-.12-.98.17-.12.09-.27.07-.37-.04-.41-.46-1.03-.11-1.53-.27-.25-.08-.54-.04-.81-.07-.43-.05-.85-.12-1.27-.19-.38-.06-.76-.11-1.14-.18-.48-.09-.96-.19-1.44-.3-.53-.12-1.05-.26-1.57-.4-.41-.11-.84-.2-1.26-.3-.3-.07-.6-.14-.9-.23-.59-.18-1.13-.46-1.78-.53-.47-.05-.93-.26-1.23-.62-.11-.13-.3-.18-.5-.18-.21,0-.44.05-.44-.26,0-.02-.01-.03-.02-.03-.2-.13-.4-.26-.6-.39-.09-.06-.2-.1-.29-.16-.29-.19-.49-.54-.95-.49-.02,0-.03-.01-.05-.02-.22-.08-.43-.16-.65-.24-.04-.01-.11,0-.16.02-.11.02-.19.08-.23.24-.03.14-.11.23-.23.27-.14.04-.19.16-.15.23.05.12.13.2.21.29.04.04.1.06.14.1.05.06.03.14-.1.23-.18.11-.18.23-.13.29.07.09.18.14.27.2.06.04.14.05.19.09.21.17.41.36.63.52.09.06.21.09.32.1.08.01.17,0,.26-.2.01-.03.09-.12.11-.11.03.01-.03.1-.04.14-.02.1-.08.24-.05.28.16.23.32.45.6.52.23.06.46.13.62.28.16.14.33.25.55.29.09.02.17.06.25.11.28.19.56.38.85.56.46.29.94.57,1.41.85.06.04.14.08.03.29-.08.15-.18.18-.27.1-.05-.05-.09-.13-.16-.16-.24-.1-.48-.2-.73-.28-.13-.04-.28-.04-.42-.08-.07-.02-.16-.03-.18-.1-.08-.21-.24-.27-.44-.29-.07,0-.15-.04-.16-.11-.05-.21-.18-.27-.4-.17-.12.05-.17,0-.2-.09-.03-.08-.08-.16-.14-.19-.26-.14-.53-.25-.79-.39-.16-.09-.36-.06-.63.13-.08.05-.18.08-.22.04-.07-.08-.11-.2-.15-.32-.08-.24-.14-.5-.21-.74-.01-.04-.06-.07-.1-.08-.11-.03-.24-.04-.35-.07-.09-.03-.2-.04-.24-.13-.11-.24-.35-.33-.59-.35-.36-.03-.55-.29-.79-.48-.08-.06-.12-.15-.29-.06-.05.03-.12.03-.14,0-.1-.12-.24-.17-.44-.14-.07.01-.12-.05-.15-.1-.04-.08-.07-.17-.1-.27-.05-.21-.2-.3-.45-.24-.28.07-.39-.07-.31-.39.02-.09.02-.19-.02-.22-.22-.18-.47-.34-.69-.52-.19-.16-.36-.33-.55-.5-.03-.03-.09-.03-.16-.02-.29.08-.49.02-.5-.26,0-.06-.05-.08-.07-.13-.04-.09-.1-.17-.11-.28-.01-.11-.05-.16-.18-.13-.07.02-.14,0-.16-.04-.09-.13-.18-.26-.22-.42-.1-.37-.51-.4-.73-.64-.05-.05-.1-.1-.16-.14-.06-.05-.1-.12-.18-.13-.18-.02-.29-.09-.25-.33.02-.15-.02-.27-.09-.37-.11-.16-.25-.31-.4-.44-.1-.09-.24-.14-.36-.22-.09-.06-.2-.12-.27-.2-.07-.09-.1-.21-.16-.31-.06-.09-.13-.17-.21-.24-.15-.16-.27-.35-.48-.46-.15-.07-.24-.18-.34-.31-.08-.1-.18-.2-.29-.27-.11-.07-.22,0-.31.19-.02.04-.03.07-.04.1-.06.14-.13.19-.23.15-.04-.02-.07-.06-.08-.11-.01-.09-.07-.14-.2-.07-.15.08-.14.18-.13.26.01.1.06.17.07.27,0,.04-.02.13-.06.17-.04.04-.13.05-.18.05-.13,0-.16-.09-.16-.21,0-.13-.02-.26-.09-.34-.14-.14-.34-.23-.36-.47,0-.03-.07-.03-.09-.06-.12-.12-.25-.24-.35-.37-.02-.03,0-.15.07-.21.07-.06.18-.06.22-.04.08.05.13.13.19.2.06.07.09.18.17.22.15.07.21.19.19.38-.01.15.07.22.25.18.06-.01.18-.08.2-.12.05-.08.08-.19.05-.22-.09-.1-.24-.15-.33-.24-.11-.11-.21-.22-.26-.37-.05-.16-.06-.33-.26-.36-.04,0-.06-.06-.09-.08-.19-.17-.11-.55-.4-.65-.01,0,0-.03,0-.05-.05-.1-.09-.21-.16-.3-.06-.08-.17-.12-.23-.19-.16-.17-.31-.35-.47-.52-.02-.03-.07-.08-.12-.04-.05.04-.01.09,0,.13,0,.03.02.05.04.07.1.22.2.43.29.65.02.04.03.13-.04.18-.07.05-.15.03-.19,0-.05-.02-.06-.08-.09-.13-.03-.06-.04-.12-.08-.17-.16-.19-.33-.38-.49-.58,0,0,0-.02,0-.03.02-.21-.12-.29-.26-.38-.16-.12-.37-.2-.34-.48.01-.12-.2-.18-.33-.25-.03-.01-.14.01-.18.06-.04.04-.01.09,0,.12.04.1.08.21.13.3.03.04.08.07.13.1.05.03.15.04.14.08-.03.07-.1.18-.18.22-.07.04-.2.04-.23,0-.07-.09-.09-.2-.12-.31-.03-.09-.04-.2-.06-.29-.01-.04-.04-.07-.06-.12-.04-.13-.07-.27-.13-.4-.01-.03-.08-.06-.13-.04-.19.06-.23-.02-.29-.1-.08-.11-.15-.23-.25-.32-.06-.05-.18-.14-.29-.06-.11.08-.05.2-.05.29,0,.09.04.17.04.25,0,.03-.01.09-.06.12-.05.03-.11,0-.13-.02-.04-.06-.06-.14-.1-.21-.09-.2-.15-.42-.5-.41-.06,0-.13-.06-.12-.12,0-.13.07-.28.09-.41,0-.06,0-.18-.09-.15-.07.02-.1.14-.1.18.02.22-.09.41-.38.58-.09.05-.16.12-.25.16-.16.07-.19.15-.17.25.02.08.05.15.06.22,0,.04.01.1-.04.14-.05.03-.11.01-.14,0-.11-.05-.19-.01-.26.12-.02.04-.04.09-.08.12-.05.04-.11.12-.17.12-.06,0-.07-.07-.06-.11.02-.12.02-.22-.11-.26-.03,0-.03-.05-.04-.07-.06-.1-.1-.22-.2-.3-.07-.06-.18-.15-.31-.09-.17.07-.29.33-.27.42.06.27-.08.62.1.86.12.16.27.39-.15.69-.05.04-.09.1-.14.11-.06,0-.07-.07-.07-.12.02-.22.03-.43.09-.65.05-.21-.05-.32-.3-.27-.31.07-.33.06-.37-.16,0-.02,0-.05-.01-.06-.04-.04-.07-.13-.14-.1-.07.03-.11.13-.13.19-.03.09-.01.18-.04.27-.02.06-.07.17-.14.19-.07.02-.1-.07-.1-.12.03-.24-.12-.34-.29-.44-.04-.02-.14-.03-.2,0-.18.08-.3.06-.38-.05-.04-.05-.13-.08-.22-.07-.15.01-.31.07-.4.22-.11.19-.11.35,0,.47.04.05.11.09.13.16.01.04,0,.14-.06.18-.06.04-.12-.01-.17-.04-.04-.02-.04-.07-.08-.08-.28-.07-.36-.31-.49-.5-.07-.11-.12-.22-.33-.17-.13.03-.21-.03-.12-.18.14-.23.07-.34-.2-.29-.18.04-.21-.02-.18-.15.06-.26-.09-.39-.24-.53-.08-.08-.2-.03-.3.08-.05.06-.09.17-.16.17-.08,0-.06-.11-.1-.16-.03-.04-.05-.12-.12-.12-.07,0-.11.1-.17.15-.03.03-.07.09-.11.09-.04,0-.05-.05-.04-.08.03-.1.07-.2.1-.31.01-.03.02-.09,0-.1-.03-.01-.09,0-.13.02-.05.03-.11.07-.15.12-.04.04-.07.08-.11.11.01-.12,0-.25-.03-.34-.03-.09-.06-.23-.04-.35.04-.34.16-.68.11-1.02h0c.07-.34.15-.68.22-1.01.01-.07.02-.21-.02-.22-.04-.01-.08.13-.12.19-.02.04-.03.12-.06.13-.03.01-.05-.04-.05-.07,0-.08,0-.2.02-.26.04-.08.11-.11.16-.17.04-.05.1-.08.13-.15.09-.23.13-.43.22-.74.1-.35.24-.64.17-.98-.01-.06.09-.25.05-.27-.05-.02-.07.19-.11.27-.02.04-.07.12-.09.1-.02-.02.02-.08.02-.13.06-.25.12-.51.17-.76.02-.07.01-.15,0-.22,0-.01-.06,0-.07.02-.08.2-.15.4-.21.61-.07.26-.17.52-.19.77-.03.27-.09.46-.2.65-.01.02-.01.06-.02.09-.03.14-.06.28-.1.41-.02.06-.05.17-.08.16s0-.12,0-.19c0-.04.02-.1,0-.11-.02,0-.03.06-.04.09-.07.19-.14.38-.19.58-.02.07-.04.2,0,.22.03.02.07-.1.1-.16.03-.07.06-.23.1-.22.04.02-.01.18-.02.27,0,.03-.01.06-.02.09-.04.1-.03.33-.15.21,0,0-.06.06-.06.11,0,.04.03.05.04.07.02.04.06.08.05.13-.01.04-.05.01-.08.04-.05.06-.12.12-.14.19-.04.17-.05.36-.09.53-.03.12-.05.36-.12.36-.07,0-.04-.26-.02-.4.05-.41.12-.83.19-1.24.1-.59.2-1.18.32-1.77.01-.06.04-.12.05-.18.08-.29.16-.57.24-.86,0-.04.02-.12,0-.12-.02,0-.05.06-.06.09-.14.46-.27.91-.38,1.37-.1.38-.18.77-.26,1.15-.04.17-.07.34-.11.5-.02.08-.04.21-.08.22-.03,0-.04-.11-.03-.16.01-.16.03-.32.07-.48.09-.37.21-.73.31-1.1.02-.06.02-.13.03-.2.09-.44.19-.89.29-1.34.04-.19.09-.39.13-.59.01-.06.01-.12.02-.18.04-.41.35-.71.35-1.13,0-.05.03-.14,0-.15-.02-.01-.06.07-.08.11-.08.23-.15.47-.23.7-.03.08-.07.16-.1.23,0,.02-.03.05-.04.04,0,0,0-.05,0-.07.04-.17.09-.34.14-.5,0-.03,0-.07,0-.1,0,0-.02,0-.03,0-.01.03-.02.06-.03.1-.02.07-.03.15-.05.21-.2.56-.39,1.12-.57,1.68,0,.02,0,.04,0,.06-.02.05-.03.16-.06.15-.03,0,0-.11.02-.15.14-.51.3-1.01.46-1.52.15-.48.3-.96.47-1.43.05-.13.12-.24.18-.36.04-.07.09-.13.11-.2.1-.31.18-.63.28-.94.03-.11.08-.22.1-.33.01-.05.01-.13-.02-.14-.03,0-.08.08-.09.12-.06.17-.11.35-.17.52-.2.58-.39,1.15-.58,1.72-.13.38-.27.75-.4,1.12-.02.04-.02.12-.04.14-.03.01-.03-.05-.04-.09,0-.04,0-.1,0-.14,0-.04-.02-.09-.04-.11-.01-.01-.06.03-.06.05-.01.04,0,.09,0,.13,0,.07,0,.15-.03.2-.05.1-.16.17-.16.28-.02-.02-.07.07-.09.03-.02-.04,0-.15.03-.22.15-.44.32-.87.47-1.31.16-.46.29-.94.46-1.41.18-.51.37-1.01.57-1.52.05-.13.15-.33.12-.42-.06-.2,0-.15.02-.23.03-.1.08-.2.12-.31.02-.05.03-.1.04-.15,0,0-.02-.02-.02-.01-.03.04-.05.09-.07.14-.12.26-.23.52-.34.78-.02.05-.07.08-.09.13-.08.23-.14.45-.21.68,0,.02-.03.03-.04.05-.1.09-.23.13-.26.41,0,.04-.05.1-.07.15-.03.06-.07.11-.08.16-.06.25-.14.39-.26.42-.02,0-.05.05-.07.09-.06.13-.12.27-.17.41-.18.51-.29,1.06-.58,1.46-.02.03-.05.11-.07.1-.02-.02,0-.1.02-.16.03-.18.05-.36.08-.54.01-.06.01-.15.05-.19.02-.03.04.03.06.03.04,0,.1.02.12-.05.02-.05-.03-.07-.03-.11.02-.12.05-.24.07-.36.04-.2.3-.37.15-.59,0,0,0-.06.01-.09.01-.06.06-.17.03-.18-.04-.02-.09.13-.12.21-.03.09-.05.19-.08.28-.04.13-.09.26-.14.39-.04.1-.09.2-.13.29,0,.01-.03,0-.04-.02,0-.02,0-.09-.01-.08-.02,0-.03.09-.04.13-.12.34-.23.67-.34,1.01,0,.01-.03.04-.03.03-.04-.08.06-.3.1-.44.02-.06.06-.1.08-.16.08-.31.17-.62.25-.94.02-.06.07-.17.04-.18-.02,0-.04.11-.06.15-.04.06-.08.18-.12.18-.02,0-.02-.06-.02-.09,0-.05.06-.15.04-.16-.03-.02-.06.11-.08.18-.03.1-.07.2-.09.29-.01.05-.04.14-.02.14.02,0,.04-.08.06-.12.03-.04.06-.13.08-.13.02,0,.01.07,0,.1-.06.21-.13.42-.2.63-.02.05-.05.1-.08.12-.02.01-.04-.02-.05-.05,0-.01,0-.08-.02-.07-.02,0-.04.09-.04.11.01.06.03.12.05.17,0,.01.02.03.02.03-.05.11-.09.29-.17.19,0,0-.05.05-.06.07-.04.26-.08.52-.1.77,0,.07,0,.19.04.18.04-.02.06-.15.08-.23.03-.13.04-.27.09-.38.04-.09.11-.16.16-.22.01-.01.06.02.05.06,0,.04-.04.02-.06.04-.02.02-.04.04-.05.06-.17.57-.32,1.14-.46,1.7-.02.06-.04.16-.08.17-.03,0-.03-.09-.04-.14,0-.05.02-.16,0-.16-.03,0-.05.12-.07.19-.07.21-.14.43-.21.64,0,.02-.02.06-.03.05,0,0,0-.02,0-.03.03-.17.07-.34.11-.51.02-.07.08-.16.07-.22,0-.05-.06.01-.09,0-.04-.03-.08-.05-.1-.11,0-.02.03-.17.05-.18.04-.03.08,0,.11,0,.05,0,.11.16.14-.12,0,0,.09-.04.13-.06.03-.01.08-.01.09-.04.03-.1.11-.25.07-.3-.02-.03-.06.08-.08.09-.02,0-.07-.02-.06-.03.03-.15.06-.3.1-.45.01-.06.03-.12.04-.17,0,0,0-.02-.01-.01-.03.02-.04.09-.05.14-.04.16-.08.32-.13.48-.01.05-.04.13-.07.12-.02,0-.01-.09,0-.13.04-.19.09-.38.13-.57.02-.07.06-.19.03-.2-.03-.01-.07.12-.08.18-.04.23-.1.43-.23.54-.01.01-.02.04-.03.06-.03.06-.06.22-.09.19-.03-.03.04-.16.06-.24.02-.18.05-.37.06-.54,0-.03-.07-.04-.1-.03-.11.02-.11.03-.03-.26,0,0,0-.01,0-.02.02-.05.04-.15.06-.16.03,0,.02.09.03.15,0,.04-.02.13,0,.13.02,0,.03-.08.05-.12,0-.02.02-.05.03-.04.01,0-.01.07,0,.08.02.07.04.13.06.19,0,0,.04-.04.05-.07.02-.08.04-.16.04-.23,0-.11-.02-.21-.03-.32,0-.04.02-.11,0-.13-.02-.02-.05.06-.08.08-.03.03-.08.13-.1.1-.04-.05.02-.24.06-.33.06-.13.17-.22.21-.35.09-.27.15-.55.23-.83.11-.43.23-.87.36-1.3.01-.05.05-.09.07-.14.04-.07.08-.14.1-.21.02-.05,0-.11.03-.16.09-.25.09-.57.3-.72,0,0,.02-.06.03-.08.16-.28.22-.63.38-.93.08-.15.08-.38.15-.56.07-.2.18-.39.27-.58.03-.06.07-.14.07-.19,0-.03-.04-.03-.05-.01-.04.07-.07.14-.1.21-.06.13-.11.27-.16.4,0,.02-.03.05-.04.05,0,0-.01-.03,0-.05.08-.28.15-.56.26-.83.14-.35.3-.68.46-1.02.03-.06.09-.18.07-.2-.02-.03-.09.1-.12.16-.22.42-.42.85-.63,1.27-.05.11-.12.22-.17.33-.15.37-.29.75-.44,1.1-.15.34-.32.65-.47.98-.05.11-.06.25-.11.37-.06.15-.14.28-.2.43-.06.15-.08.32-.14.47-.21.56-.42,1.11-.62,1.66-.02.06-.06.18-.09.17-.03-.01,0-.14.02-.21.06-.22.13-.44.19-.67.01-.05.04-.14.02-.15-.02,0-.04.07-.06.1-.01.02-.03.04-.04.03,0-.01.01-.05.02-.08.07-.21.14-.41.22-.62.01-.03.01-.08.02-.1.01-.02.04-.05.05-.03.02.04-.02.15-.04.23-.01.05-.04.1-.05.15,0,.02,0,.06,0,.06,0,0,.02-.03.03-.05.09-.23.18-.47.27-.7.04-.09.07-.19.1-.28.02-.05.04-.1.06-.15,0,0-.02-.04-.03-.04-.03.04-.05.09-.07.13-.02.04-.04.09-.06.13-.04.07-.08.23-.11.21-.04-.03.05-.2.08-.3,0,0,0-.01,0-.02.02-.09.08-.24.05-.26-.03-.01-.06.11-.1.17-.03.04-.06.14-.08.12-.02-.01.02-.09.03-.14.04-.17.09-.34.13-.51,0-.04.03-.1.05-.11.07-.04.07.13.1.2,0,0-.02.05-.01.05,0,0,.03-.02.03-.03.1-.29.38-.81.38-1.02.01-.02.02-.06.02-.06,0,0-.02,0-.03,0,0-.01-.02-.02-.03-.03,0,0,0,0,0,0,.02-.07.06-.37.12-.14,0,0,.02,0,.03-.02.01-.04.03-.08.04-.12.03-.13.07-.26.09-.39.03-.16.12-.42.06-.48-.04-.04,0-.02-.1-.04-.07-.01-.14.29-.21.43-.01.02,0,.06-.01.09,0,.06-.01.15-.02.17-.07.07-.14.14-.21.19-.03.02-.04-.06-.07-.02-.03.05-.02.12-.02.18,0,.03.03.06,0,.09-.02.03-.04,0-.06.02-.03.04-.07.08-.09.13-.02.05-.06.15-.04.16.02.01.05-.08.07-.1.01,0,.02.04.03.06.01.03.03.05.04.09,0,.03.02.06,0,.11-.02.05-.05.06-.08.08-.03.03-.08.04-.1.09-.07.15-.14.31-.21.46-.01.03-.03.07-.05.07-.02,0-.02-.04-.01-.07,0-.05.06-.16.03-.16-.03,0-.05.14-.07.2-.01.05-.02.1-.04.15-.16.36-.31.72-.46,1.07-.02.04-.07.04-.09.08.17-.45.29-.94.44-1.41.01-.03.03-.09.02-.11-.01-.02-.05.03-.07.06-.03.03-.06.11-.08.09-.02-.02,0-.1.02-.15.01-.06.06-.16.04-.18-.02-.02-.07.1-.1.15-.02.04-.04.09-.06.14-.03.06-.04.16-.08.19-.01.01-.03-.02-.02-.03.02-.07.04-.15.06-.22.02-.07.04-.2.03-.2-.07-.01-.14-.09-.23,0,.15-.21.2-.58.3-.87.01-.03.06-.07.08-.08.01,0,.02.07.01.1-.04.1-.1.19-.14.3-.04.12-.12.3-.09.37.02.05.09-.05.13-.09,0,0,.03-.07.03-.11.01-.07.02-.14.04-.21.03-.14.12-.38.1-.4-.09-.11,0-.26.07-.43.04-.1.08-.2.12-.31,0,0-.01-.04-.02-.04-.04,0-.12.08-.13,0,0-.05.04-.12.07-.18.05-.12.1-.23.15-.34.01-.03.04-.09.03-.1-.01-.01-.05.04-.06.07-.14.27-.29.54-.4.83-.13.34-.21.71-.42.96-.04.05-.09.07-.13.12-.04.04-.08.1-.11.16-.02.05-.06.17-.04.19.02.01.05-.07.07-.1.03-.03.08-.11.09-.09.02.02,0,.15-.02.17-.05.07-.11.13-.16.16-.05.03-.13.02-.14.06-.05.14-.16.4-.11.42.03.01.06-.12.09-.18,0,0,.03.02.03.04.05.24-.06.48-.18.71-.02.03-.04.1-.05.09-.02,0,0-.08,0-.11,0-.16,0-.31,0-.47,0,0-.04.03-.04.03-.02.18-.02.36-.05.55-.02.14-.02.37-.1.45-.05.05-.06-.07-.09-.11-.02-.02-.02-.09-.05-.06-.02.02-.01.08-.02.12-.05.18-.09.36-.15.53-.04.11-.15.29-.18.28-.11-.03-.1.08-.12.23-.02.13-.09.38-.13.4-.14.08-.11.22-.14.38-.02.12-.1.26-.16.38-.01.03-.04.05-.06.06,0,0-.02-.03-.01-.05.02-.23,0-.45.15-.68.03-.05.1-.2.07-.23-.02-.03-.07.12-.1.18-.03.04-.06.13-.08.12-.02,0,0-.08,0-.13.06-.29.13-.59.19-.89,0-.04.03-.12.01-.13-.02,0-.05.06-.07.1-.22.54-.43,1.09-.63,1.63-.18.51-.35,1.01-.52,1.52-.07.2-.12.41-.18.61-.03-.17-.06-.35-.09-.52-.07-.48-.07-.97-.19-1.44-.08-.35.07-.64.07-.97,0-.58-.23-1.11-.22-1.69.01-.81.64-1.96-.04-2.44.14-.14.14-.5-.06-.57.04-.06.05-.16,0-.22h0c1.09-.68-.26-2.72.36-3.82.22-.39.23-.86.11-1.29-.54-1.83-.31-5.14-2.28-6.15-.3-.15-.54.32-.44.59.11.31.04.57-.06.82-.15.37.19.61.33.63.73.08.59.46.38.9-.06.14-.17.36,0,.44.19.09.24-.44.54-.25.3.18.04.33-.04.48-.1.2.28.29.15.46-.11.14-.26,0-.38-.03-.15-.04-.33-.08-.44.05-.18.21.14.21.17.35.12.47.39.62.84.4.11-.05.23-.02.27.12.02.09.11.27-.05.26-.28-.02-.22.32-.46.35-.15.02-.28.15-.17.35.07.12.14.28.29.22.62-.26.29.26.46.49.2.27-.41.42-.59.66-.07.1-.34-.2-.38-.43-.06-.33-.24-.36-.48-.21-.3.18-.68.03-.69-.14,0-.47-.34-.4-.58-.48-.17-.06-.39-.25-.51.04-.09.22,0,.5.21.57.24.07.48.15.31.38-.09.11-.45.33-.7.04-.12-.14-.28-.32-.43-.17-.7.69-1.26-.51-1.93-.13-.01,0-.13-.16-.19-.25-.62-.94-.48-1.94-.24-2.94.07-.3.45-.6.27-.88.34.08.29-.28.22-.49-.3-.83.31-1.33.68-1.93.31-.5.92-.74,1.14-1.32.15-.38.37-.67.73-.9.05-.03.68-.34.14-.7-.05-.03.07-.66.2-.57.59.39.33-.2.43-.33.27-.33-.13-1.01.25-1.15.2-.07.34.4.49.27.26-.22-.11-.23-.2-.33-.09-.1-.07-.23.02-.29.23-.16.19-.44.29-.66.28-.59,0-1.29-.37-.95-.1.09-.04.23-.11.37-.11.21-.12.38-.3.58-.02.02-.04.06-.05.09-.08.3-.16.55-.32.8-.05.08-.06.19-.11.27-.24.4-.47.72-.57,1.24,0,.03,0,.05,0,.08-.06.23-.09.4-.27.58-.06.06-.11.14-.13.22-.04.14-.02.28-.12.42-.14.19-.2.43-.28.65-.07.21-.25.19-.42.29-.19.11-.33.04-.48.13-.24.16-.49.16-.59.39,0,0,0,0,0,0,.21.09-.23.28-.27.54,0,0,0,0,0,0,.32.41-.46.85-.52,1.34-.01.13,0,.26-.04.38-.12.49-.29.91-.61,1.39-.02.03-.04.08-.04.11-.08.4,0,.54-.11.8-.04.11-.05.25,0,.37.05.13.06.18,0,.3-.04.08-.03.17-.04.25,0,.11-.04.19-.1.29-.14.23.07.48.24.63.55.5.78.48.51,1.14-.05.12-.22.3-.09.37-.48.47-.43,1.33-.37,1.97.06.62-.21,1.01-.38,1.53-.08.25-.26.58-.09.77,0,0,.04.01.06.01.02,0,.05,0,.06,0,0,.08-.02.16,0,.24-.06-.02-.13.02-.16.07-.06.09-.03.22,0,.33.07.38,0,.64-.13,1-.05.16,0,.34-.03.51-.08.4-.23.8-.11,1.17.04.13.05.19,0,.33-.16.41,0,.88-.06,1.31-.02.18-.1.35-.11.54-.04.58.17,1.16.13,1.74-.01.15-.07.29-.09.43-.03.17-.05.34-.06.51-.02.18-.03.36-.03.54,0,.14.04.27.06.4.04.31-.22.33-.42.48-.16.12-.19.38-.1.55.02.03.06.05.09.04-.03.08-.01.18.04.25-.05.03-.06.1-.04.15.03.08.15.18.23.15.02.06.05.13.11.15-.07.17.13.34.23.48.09.13.06.17-.02.32-.05.1-.06.17-.13.26-.11.15-.12.28-.3.41-.31.22-.45.63-.58.97,0,.02-.01.04-.01.06.02.57.26.65-.04,1.52-.02.07,0,.15.08.17.24.05.3.55.61.71.27.15.37.39.61.49.08.03.15.07.24.07-.15.33-.05.98.33.99-.05.16.03.35.11.49h0c-.19.09-.01.45.09.63-.18.05-.11.53.09.48,0,.07-.01.15.03.21-.17.05-.08.43.1.39-.15.46-.06,1.03.3,1.33-.19.09.05.33.16.3-.09.32.05.62.1.92.21,1.17.42,2.34.92,3.44.54,1.2.96,2.47.45,3.8-.58,1.51.3,2.92,1.76,3.55.66.29.7.77.96,1.42-.21-.02-.2.39,0,.39-.37,1.35.27,2.77.77,4.12.54,1.45,1.08,2.75,2.93,3.34,1.03.33,1.84,1.12,2.26,2.12.8,1.9,2.32,3.27,4.11,4.24.15.08.28.21.38.35.8,1.18,2.08,1.82,3.04,2.81.69.71,1.62,1.18,2.15,2.05.2.34.48.57.8.79,2.47,1.61,4.97,3.16,7.68,4.34.1.04.22.1.27.19.37.65,1.08.86,1.66,1.13,1.46.69,3.03,1.17,4.48,1.94.64.34,1.73.71,2.45.74.76.03,1.42.56,2.15.67,1.29.2,2.61.38,3.84.73,1.73.5,3.46.47,5.19.57,1.18.07,2.37-.02,3.54.17.59.09,1.16-.1,1.72.03.79.18,1.54.24,2.3-.28.04-.03.11-.03.14,0,.74.55,1.48.33,2.23.2.78-.13,1.56-.28,2.33-.41.8-.14,1.62-.29,2.4-.47,1.4-.32,3.05,0,4.22-.89.05.11.28.07.27-.06.39.19,1.01.25,1.3-.13.11.2.37-.08.28-.23,1.65.43,3.18-.63,4.71-1.11.79-.24,1.6-.5,2.36-.85.22-.1.38-.17.56-.36.7-.73,1.47-1.39,2.57-1.46.37-.02,1,.02.97-.52.53.14,1.22-.36,1.35-.94,1.37.19,3-.78,3.57-2.05.12.12.37-.01.4-.19.06.04.16,0,.2-.05.04.08.16.05.24,0,1.03-.78,2.06-1.59,3.11-2.34.91-.66,1.88-1.25,2.8-1.88.51-.35.95-.95,1.5-1.07,1.05-.22,1.81-.92,2.71-1.36.84-.41,1.51-1.39,2.65-.77.08.04.29,0,.37-.11.15-.19.44-.34.26-.62-.15-.23-.45-.14-.69-.15-.37-.02-.68.15-.98.36-.91.64-1.95,1.04-2.95,1.49-.22.1-.52.1-.65-.17-.14-.29.09-.44.29-.59.53-.41,1.08-.83,1.41-1.4.65-1.14,1.54-2.1,2.32-3.14.32-.42,1.13-.97.77-1.39.72-.28,1.17-1.22.92-1.87.39-.08.68-.73.46-1.05.09-.04.13-.16.14-.25.34.21.55-.43.64-.76h0c.49.27.52-.62.74-.95,1.11-1.68,2.2-3.35,2.85-5.28.39-1.15,1.94-2.59,1.03-3.48.27-.16.18-.6.09-.89h0c.13,0,.2-.18.31-.25.91-.55.92-.55.7-1.62-.06-.3-.03-.57.19-.84.25-.31.38-.7.44-1.09.16-1.12,1.81-2.82.77-3.65.09-.08.07-.23.05-.35.46-.08.68-1.22.24-1.38.11-.25.39-.52.23-.77.13,0,.16-.26.01-.28.06-.1.03-.23.02-.34.25.1.53-.55.24-.62.05-.07.1-.16.1-.24.3.01.34-.75.06-.83.06-.12.08-.26.04-.39.2.02.21-.41,0-.38.18-.5-.02-1.07.03-1.61.04-.51.46-1.25-.03-1.57.23-.18.35-.67.14-.87.32-.32.17-.89.24-1.33.15-.85.15-1.76.05-2.62m-31.92,31.25s.04.04.04.06c0,.03-.02.06-.03.07,0,0-.05-.01-.06-.06,0-.05.04-.06.05-.07m.02,1.31s.07,0,.07.04c0,.05-.04.08-.07.1-.02.01-.09.04-.1-.05-.01-.09.07-.09.09-.09m-.6-1.11s.08.08.12.14c0,0-.03.1-.05.1-.04,0-.08-.02-.12-.06-.02-.03-.06-.06-.06-.1,0-.06.07-.09.1-.08m-37.59-13.6c-.05.07-.12.06-.16.05-.09-.03-.03-.18.11-.31,0,0,.07-.08.1-.07.06.03.04.22-.05.33m.35-.84c-.06.07-.15.07-.17.05-.03-.02-.04-.12.02-.19.04-.06.13-.11.17-.08.05.03.04.14-.02.22m.95,1.08s-.03-.12.03-.2c.06-.08.18-.17.23-.12.05.04,0,.18-.06.25-.07.09-.16.08-.2.06m.26.41s-.06.05-.08.04c-.01,0-.04-.05,0-.1.04-.05.08-.04.09-.03,0,.01,0,.06-.01.09m-27.43-17.13c.03-.11.06-.3.12-.33.05-.02.13.05.11.22-.03.18-.14.28-.19.27-.04,0-.05-.12-.04-.16m-.08.74s.03-.08.04-.08c.02,0,0,.06,0,.1,0,.03-.02.08-.04.07-.02,0-.01-.06,0-.09m-.86-1.33c.01-.12.02-.25.06-.35.04-.12.12-.22.18-.33,0,0,.04,0,.03.01-.02.09-.03.18-.06.26-.03.11-.08.22-.1.27-.03.11-.02.15-.04.18-.03.06-.06.18-.09.17-.04-.01,0-.14,0-.21m-.22-.67c.01-.09.06-.21.07-.3.03.17.12.13.03.34-.02.05-.08.14-.11.12-.03-.02,0-.11,0-.17m.27-2.65c.03-.08.08-.19.12-.18.02,0,0,.08,0,.1-.04.08-.07.24-.12.23-.02,0-.02-.08,0-.15m-.31-3.82c.02-.06.1-.24.16-.22.05.02,0,.16-.02.19-.06.12-.15.37-.2.35-.05-.02.03-.22.06-.32m-.89.53c.02-.08.07-.21.11-.21.01,0,0,.06,0,.08-.03.07-.06.2-.1.2-.01,0,0-.04,0-.07m-.13.08s.03-.04.05-.05c.01,0,.06-.03.04.03-.03.12-.09.09-.1.08,0,0,0-.05,0-.06m-.68,2.32s.02-.09.04-.09c.03,0,0,.08,0,.11,0,.02-.02.06-.03.05-.01,0,0-.05,0-.07m-.33-1.12s.04.1,0,.18c-.02.05-.06.05-.06.04-.01-.03-.02-.07-.01-.11,0-.04.05-.11.07-.11m0-1.6s.04-.13.06-.12c.02,0,0,.11-.03.18-.02.07-.07.19-.1.17-.03-.02.04-.16.06-.23m27.02,61.65h0,0m-24.47-16.22c.17-.52.59-.57,1.12-.61t0,0c-.53.04-.95.09-1.12.61m-5.3-38.97c0-.07.05-.14.07-.14.03,0,0,.1,0,.15,0,.03-.02.09-.04.09-.02,0-.04-.05-.03-.11m1.74-1.77s.03-.06.04-.05c.01.01.04.03.03.08-.01.05-.05.07-.05.06,0-.02-.01-.05-.01-.09m.62,4.09s0,.12-.01.15c0,.03-.02.09-.04.08-.02,0,0-.07,0-.11,0-.03,0-.14.04-.13m0-.87c0-.07.04-.15.07-.15.02,0,.01.09,0,.13,0,.03-.03.09-.05.09-.02,0-.03-.04-.02-.07m0,2.29c0,.14.03.28.03.42,0,.02-.02.07-.03.07-.03,0-.06-.09-.05-.13.02-.12.04-.24.06-.36m1.51.14s0-.08.01-.13c0-.04.02-.07.02-.11.02-.07,0-.22.05-.22,0,0,0,.04,0,.05-.02.14-.04.27-.06.41,0,0-.02,0-.02,0m3.71,21.59c.14.28.31.54.45.82.11.21.2.44.29.67.01.03.01.12-.02.12-.04,0-.09-.07-.12-.12-.16-.27-.32-.55-.46-.83-.12-.26-.21-.54-.33-.81-.11-.25-.26-.48-.37-.74-.09-.22-.16-.46-.23-.69-.01-.04-.02-.11,0-.12.03-.01.09.04.1.09,0,.02-.03.01-.03.03-.03.52.45,1.07.7,1.59m5.91,10.39s.04.06.02.07c-.02.02-.07-.01-.09-.03-.15-.16-.3-.32-.45-.47-.15-.16-.3-.31-.44-.48-.05-.05-.14-.14-.11-.18.03-.06.15.05.23.08.01,0,.04.12.08.09.01,0,.03.02.03.04,0,.22.23.32.36.47.12.14.25.27.38.4m-.14-1.31s.03,0,.04.02c0,0,.02.03.01.04,0,0-.03.03-.05.01-.04-.03-.02-.06,0-.07m.49,1.7c-.05.04-.16-.1-.24-.15-.02-.01-.1-.07-.07-.11.05-.07.18.06.24.11.04.03.1.13.07.16m-.05-1.57s.02-.05.03-.04c.06.04.15.05.21.14.08.11.06.24.08.37,0,0-.06,0-.08,0-.19-.12-.22-.29-.24-.45m-.14,1.82c.12.12.23.24.34.36.06.06.11.12.17.18.03.03.07.08.08.08.04-.01.1-.01.09-.06,0-.04-.06-.07-.1-.11-.07-.08-.2-.15-.2-.23,0-.05.08-.07.11-.06.07.04.15.1.2.17.1.14.25.32.25.43,0,.07.02.13.04.18-.29-.3-.77-.55-1.1-.84-.12-.11-.25-.18-.32-.33-.01-.02-.04-.06-.02-.07.01-.01.05.03.07.04.09.05.18.1.26.15.04.03.09.07.13.11m1.41,1.41s.12.12.09.15c-.02.02-.09-.04-.13-.07-.06-.04-.16-.08-.18-.15,0-.01.02-.01.02-.02-.02-.06-.04-.11-.07-.16.09.08.19.16.27.25m-.26-1.11s.08.03.13.05c.04.01.09,0,.11.04.03.05-.03.08-.06.1-.02.01-.08-.01-.1-.03-.04-.04-.11-.12-.08-.15m1.02.81s.07.1.05.12c-.02.02-.09-.01-.12-.04-.05-.04-.23-.13-.18-.21.05-.09.2.08.25.12m-.25-.62s.12.03.18.07c.08.06.18.17.14.2-.05.05-.17-.1-.25-.16-.03-.02-.09-.08-.07-.11m.55,1.93c.04.09.15.17.24.25.19.16.38.31.57.46.03.02.07.1.04.12-.03.01-.07-.05-.1-.07-.08-.04-.16-.07-.23-.12-.11-.09-.22-.19-.33-.28-.21-.19-.43-.39-.64-.58-.04-.04-.11-.06-.15-.1-.06-.07-.18-.17-.15-.24.02-.04.07,0,.09,0,.19.03.56.36.65.56m1.73,1.52s.12.04.17.07c.09.05.18.11.26.18.02.02.04.09.02.1-.02.02-.08-.02-.12-.04-.07-.03-.16-.05-.25-.13-.04-.04-.13-.15-.09-.18m.87,4.44s.08.01.11.03c.04.03.13.08.11.11-.01.03-.09,0-.14-.04-.04-.03-.09-.08-.08-.1m.72-3.28s.16.02.25.1c.07.06.19.17.15.22-.03.03-.13-.03-.17-.07-.09-.08-.27-.19-.23-.25m.6,5.19c.34.21.67.42,1,.64.13.09.23.22.35.32.16.13.33.25.49.37.03.02.08.03.08.05,0,.02-.06.02-.08,0-.19-.09-.42-.17-.57-.29-.09-.07-.15-.16-.28-.2,0,0,0-.03,0-.03.03,0,.1.03.1,0,0-.03-.08-.04-.12-.05-.15-.05-.3-.1-.45-.16-.01,0-.03-.01-.04,0-.27-.3-.55-.59-.84-.88.12.07.24.14.36.22m.03-4.7s.15.03.22.07c.13.07.25.15.38.23.2.13.55.21.61.39.02.07-.1.1-.17.11-.05,0-.15-.04-.16-.04-.34-.18-.56-.43-.81-.63-.04-.03-.1-.1-.08-.12m4.02,2.5c-.07-.02-.17-.05-.2-.11,0,0,0,0,0-.02-.13-.17-.44-.18-.66-.28,0,0-.01,0-.01,0-.23-.23-.55-.27-.82-.43-.02-.01-.02-.06-.04-.09-.02-.03-.04-.05-.06-.07-.02-.03-.07-.06-.07-.08,0-.03.08-.02.1,0,.27.15.54.3.81.45.1.06.21.13.31.15.28.06.5.21.72.37.04.03.11.08.09.11-.02.04-.12.02-.18,0m.68,2.81s.13.09.11.12c-.02.04-.16.02-.23-.02-.01,0,0-.02,0-.03-.11-.11-.31-.15-.47-.23-.03-.02-.09-.06-.08-.08.01-.03.09,0,.12,0,.18.07.37.15.54.23m-1.3-2.98c.02-.05.16-.02.25.03.06.03.09.09.08.11-.02.04-.13.03-.18,0-.06-.03-.17-.1-.15-.15m.04,4.54s-.08,0-.11-.02c-.06-.03-.18-.08-.16-.12.01-.03.1.02.17.05.04.02.12.06.11.09m-.57-.05s.08.05.09.04c.02-.01-.03-.04-.05-.06-.04-.04-.16-.09-.14-.12.03-.04.16.02.21.07,0,0-.01.01,0,.02.07.08.23.09.34.14.03.01.08.04.08.06,0,.02-.04.02-.07.02-.02,0-.07-.02-.08,0,0,.02.06.05.09.07.02.01.06.01.08,0,.12-.09.3-.04.42.11.01.02,0,.04-.01.05-.02.01-.07,0-.07.03,0,.04.07.08.12.1.13.06.26.12.39.18.03.01.07,0,.1,0,.05,0,.12,0,.15.03.02.02-.02.04-.02.06,0,.01,0,.04.02.04.22.11.44.23.67.32.39.14.79.24,1.18.39.25.09.48.25.73.37.08.04.18.03.26.07.22.11.42.23.63.35.03.02.08.06.06.08-.02.02-.08,0-.12-.02-.25-.07-.5-.15-.75-.22-.05-.01-.09.05-.15.06-.06.01-.14.03-.22.01-.27-.07-.54-.14-.81-.24-.11-.04-.23-.14-.28-.21-.05-.07,0-.15-.02-.22,0-.03-.05-.09-.08-.1-.16-.05-.33-.11-.48-.14-.24-.04-.43-.14-.62-.27-.07-.04-.1-.12-.16-.17-.07-.05-.17-.1-.24-.12-.31-.05-.52-.21-.76-.39-.19-.15-.44-.25-.67-.38-.41-.23-.82-.46-1.22-.69-.04-.02-.11-.06-.1-.08.01-.02.08.02.11.04.45.25.91.49,1.37.72m2.14-1.33s0,.02,0,.03c.06.05.16.04.23.07.04.02.09.05.1.08.03.07.13.18.06.21-.05.02-.13-.05-.19-.09-.09-.05-.19-.11-.27-.17-.05-.04-.15-.11-.12-.15.02-.03.13-.02.17.02m-.17-2.45s.09.02.11.03c.02,0,.05.03.04.05-.01.01-.05,0-.08-.02-.02,0-.09-.03-.07-.06m2.03.66s.02-.03.02-.02c.05.02.11.04.15.07.02.02.02.05.04.08.02.03.03.08.07.1.13.07.26.15.39.2.2.06.4.09.6.14.06.01.14.02.16.05.17.19.41.27.66.35.03,0,.09.03.09.06,0,.03-.07.03-.1.02-.05,0-.12-.06-.16-.05,0,0,0,0,0,0-.35.08-.82-.28-1.23-.44-.04-.01-.07-.04-.1-.06-.3-.25-.65-.4-1.03-.49-.16-.04-.32-.07-.48-.11-.03,0-.05-.09-.09-.13-.04-.04-.09-.09-.14-.11-.13-.06-.26-.09-.39-.15-.05-.02-.16-.07-.15-.11,0-.04.11,0,.16.01.45.15.91.22,1.34.47.04.02.05.07.08.1.02.03.04.09.08.09.03,0,0-.04.01-.06m8.14,2.65s.11-.01.15,0c.06,0,.13,0,.19.01.04,0,.09,0,.11.02.02.03-.06.07-.09.07-.1,0-.2-.04-.3-.06-.01,0-.06,0-.05-.03m2.7-1.28c.02-.05.17.01.25.02.01,0,.03,0,.04,0,.07.02.2.02.2.06,0,.05-.11.05-.19.05-.12-.01-.32-.06-.3-.13m-2.5,8.53s.01-.03.03-.04c0,0,0,0,0,0-.02.01-.03.02-.03.04M10.08,52.75c.07.27-.68.85-.6,1.27-.09-.51.72-.9.47-1.39.03.04.08.08.13.11-.01-.04-.04-.08-.11-.1.07.03.16.12.19.12-.01.02-.05.01-.09-.01m11.72,6.69s.06.06.08.08c.14.16.27.33.41.49-.16-.15-.33-.3-.46-.46-.02-.02-.04-.05-.06-.08.01,0,.02-.02.04-.03m-.06,3.19c.04-.05.18.09.26.15.02.02.07.12.03.15-.03.02-.1-.01-.15-.06-.08-.07-.17-.19-.14-.23m.91,3s.08.11.06.13c-.02.03-.09,0-.14-.04-.06-.05-.11-.14-.09-.17.03-.03.12.04.17.08m.55.9s.06.06.05.07c0,.02-.05,0-.07-.02-.03-.02-.11-.08-.09-.11.02-.03.08.04.1.05m.11-4.43s-.1-.11-.15-.16c-.06-.06-.12-.12-.17-.18-.03-.04-.09-.13-.06-.15.02-.02.07.04.1.06.05.03.09.06.12.08.04.04.06.07.07.1.03.09.16.23.1.25m-1.39-1.2c-.13-.16-.27-.32-.39-.49-.02-.03-.05-.09-.03-.1.03,0,.07.07.07.07.15.17.25.32.36.46.02.02.05.06.04.08,0,.01-.04,0-.05-.01m-.67.43s-.11-.01-.12-.04c-.07-.11-.25-.3-.18-.35.06-.04.22.12.29.25.03.05.03.11.01.14m-.54-.53c.08.24.27.42.39.63.02.04.06.07.09.11.04.04.12.08.13.13,0,.02-.03.03-.05.03-.06-.02-.13-.04-.19-.09-.09-.08-.16-.19-.25-.29-.01-.02-.04-.06-.05-.05-.01,0,.02.04.03.06.02.04.07.11.05.12-.03.01-.08-.06-.11-.1-.1-.14-.2-.27-.29-.41-.02-.04-.02-.08-.02-.12,0-.03,0-.05,0-.08,0,0,0,0,0,0,.05-.05.09-.1.14-.15.06.07.11.14.13.21m-1.07,1.76s.03.1.05.15c.02.06.1.13.08.17-.02.04-.1-.02-.15-.03-.03,0-.1-.07-.11-.04,0,.03.08.07.1.11.13.26.36.23.52.42.09.11.17.22.25.32,0,.01.01.04,0,.04-.02,0-.06-.03-.09-.06-.21-.18-.42-.36-.63-.54-.03-.03-.09-.09-.1-.06,0,.02.05.05.08.08.16.19.31.38.47.56.23.27.47.53.71.79.01.01.04.04.05.03.01,0,0-.04-.02-.06-.06-.08-.12-.16-.18-.24-.02-.03-.07-.09-.06-.1.02-.02.08.04.11.07.07.07.13.15.2.21.06.05.13.07.2.11.08.05.15.12.22.18.09.09.18.18.27.28.02.02.05.05.07.07.03.04-.08.1.09.15.07.02.17.14.25.22.05.04.15.11.13.14s-.11-.07-.16-.1c-.04-.03-.09-.1-.11-.08-.02.02.05.09.09.12.17.17.36.33.53.5.14.13.26.28.4.41.12.11.24.2.37.3.25.21.49.41.74.61.01,0,.02.03.03.04-.13-.07-.27-.14-.41-.2-.13-.1-.25-.21-.38-.32-.25-.22-.5-.45-.74-.68-.01-.01-.04-.03-.05-.02-.01.01.03.05.05.07.2.21.41.41.62.61.08.07.15.14.23.21-.08-.04-.17-.07-.26-.1-.12-.11-.23-.22-.35-.33-.18-.17-.37-.32-.55-.49-.1-.09-.18-.19-.27-.29-.09-.09-.23-.31-.28-.26-.04.04.13.14.18.22.03.04.1.12.08.14-.03.03-.12-.04-.16-.08-.15-.12-.29-.26-.44-.37-.07-.05-.2-.14-.24-.1-.05.05-.2.05,0,.24.02.02.05.09.04.1-.02.02-.07-.01-.1-.04-.42-.37-.86-.73-1.24-1.15-.19-.42-.31-.86-.34-1.29,0,0,.02,0,.03,0,.01,0,.03,0,.03-.02,0-.01-.03-.01-.04-.02,0,0-.01,0-.02-.01-.02-.25,0-.49.04-.74.01-.01.02-.04.02-.07,0-.04.02-.07.03-.11.1.09.18.18.12.29m4.21-.09s.11.03.15.08c.02.03.04.06.02.07-.03.02-.1-.06-.15-.1-.01,0-.03-.04-.02-.05m.98,1.01s.01-.02,0-.03c-.09-.22-.4-.35-.59-.54-.04-.03-.1-.12-.08-.14.03-.02.09.05.12.08.19.19.39.37.59.56.04.04.13.1.11.14-.02.04-.13-.02-.17-.08m-.73-1.22s-.08-.08-.05-.11c.03-.04.11.03.14.05.02.02.06.09.04.1-.02.02-.09-.02-.13-.05m-3.92,3.02s-.02-.03-.03-.05c.05,0,.11-.03.18.04.05.05.02.11.01.11-.04-.01-.08-.03-.12-.05-.01-.02-.03-.03-.04-.05m.67.74s-.01-.02,0-.03c.05-.05.2.11.3.17,0,0,.02.03.02.05-.11-.06-.21-.12-.31-.2m.88.16s.07.06.06.08c0,.02-.06,0-.08-.02-.1-.07-.19-.14-.28-.22-.03-.03-.1-.1-.08-.12.02-.03.11.01.14.06.01.02-.02.02,0,.04.05.09.17.12.25.18m.37.41s-.03-.03-.04-.04c-.03-.03-.07-.09-.06-.11.02-.03.12.01.15.04.06.06.11.12.17.17-.08-.02-.15-.05-.23-.07m-11.08-21.34c.02.06.08.23-.05.13,0,0-.02,0-.02,0,0,.01,0,.04.02.05.19.15.2.47.26.7.19.76.37,1.51.58,2.25,0,.02.01.03.01.05-.09-.17-.21-.34-.33-.51-.01-.04-.02-.08-.03-.12-.06-.21-.1-.42-.16-.64-.01-.05-.04-.15-.08-.14-.03,0-.01.09,0,.13.05.2.1.4.15.6-.05-.07-.11-.15-.16-.22-.02-.09-.04-.18-.06-.26-.05-.21-.12-.2-.2-.19-.03-.06-.05-.12-.08-.18,0,0,.01,0,.02,0,.05-.06-.06-.25-.1-.37,0,0,0,0,0-.01-.01-.12,0-.24.01-.37.02.08.04.17.08.18,0,0,0-.02,0-.02-.02-.1-.03-.21-.06-.31,0-.01,0-.03,0-.04.03-.11,0-.29-.13-.28.04-.06.06-.13.1-.19,0,.04.01.07.02.11.01.07.04.13.07.2,0,0,.04,0,.04-.02,0-.06,0-.13-.01-.2-.02-.07-.03-.15-.05-.22.04-.07.07-.14.11-.21,0,.03.02.07.03.1m-2.23-15.72v-.17s.04.05.06.04c-.02.02-.04-.02-.06-.04m-.04-.83s-.07.04-.05.06c-.02-.02.05-.04.05-.06,0,0,0,0,0,0,0,0,0,0,0,0m-.08-5.77c.03-.07.05-.15.06-.23,0,.07-.03.15-.06.23m-.93,6.59s.09-.06.14-.07c-.05.02-.1.03-.14.07m6.89,20.01s-.08-.04-.09-.09c0-.02,0-.04.02-.04.03,0,.09-.08.13.02.05.12-.06.11-.06.11m.08,1.57s0-.02,0-.03c0,0,.01.02.02.03,0,0-.01,0-.02,0m-.45-2.75c.07-.02.1.2.13.31.02.07.08.22.04.23-.05.01-.09-.14-.12-.24-.03-.09-.11-.29-.05-.31m.1,1.38c0-.1,0-.21-.07-.3.02,0,.04,0,.06.02.04.04.08.08.11.16.04.11.03.22.04.33,0,.01-.02.04-.02.04-.02-.02-.05-.04-.06-.07-.01-.03-.03-.07-.05-.1,0-.03-.01-.05-.01-.07m-2.35-.29s0-.09,0-.14c.01.04.02.08.04.12-.01,0-.03.01-.04.01m-3.91-27.64s-.02.02-.04,0c.02.02.03,0,.04,0m-1.49,11.22s.05.02.04.03c0,0,0-.02-.04-.03m-.13,1.6s.03.01.03.03c0-.01-.02-.02-.03-.03m.08-1.57s-.02.02-.03.04c-.02,0-.03.01-.04.02.02-.02.05-.04.07-.06m-.1.09c-.03.09-.1.21-.04.3-.07-.09-.05-.2,0-.27-.12.02-.39-.25-.52.04.16-.33.39-.02.56-.08-.01,0-.02.03-.04.04.02,0,.03-.01.04-.03m-.11,1.46s.02.02.04.02c.02.02.03.04.05.06-.03-.03-.06-.06-.1-.08,0,0,0,0,.01,0m-.7.61c0-.11,0-.19,0-.26,0,.08,0,.16,0,.26m-.41,3.84c.03-.13.08-.19.16-.2-.08.04-.14.11-.16.2-.08.38.59.11.93.14.05.03.1.06.15.09-.31-.14-1.17.25-1.08-.22m1.16.27s.02-.01.03-.02c-.01,0-.02,0-.03,0,.03,0,.06,0,.09-.03-.02.02-.04.03-.06.04.18.06.31.26.23.44.03-.15-.11-.31-.27-.42m4.38,15.83s0-.07,0-.07c-.09-.1-.27-.05-.24-.23-.03.18.19.1.24.22m24.03,20.68s.02-.06.04-.06c.09.02.17.04.24.07.14.06.25.14.36.2.03.01.07.04.06.06,0,.01-.04,0-.07,0-.1,0-.18,0-.25-.02-.11-.06-.22-.13-.33-.2-.02-.02-.04-.04-.06-.06m-2.56-1.75s.03.02.05.03c.02.01.04.03.05.05-.03-.03-.07-.05-.1-.08m-.47-.41c-.05-.05-.1-.1-.15-.14.03.01.06.02.08.04.05.03.15.08.14.11,0,.01-.03,0-.06,0m-.11-.24s-.04-.03-.06-.04c-.07-.03-.14-.06-.21-.09-.12-.13-.24-.25-.35-.38.22.16.44.31.66.46.04.03.12.07.11.09-.02.03-.1-.03-.14-.04m7.79-1.17s.05,0,.06,0c.02.01.06.04.06.06,0,.01-.04.02-.07,0-.03-.01-.05-.05-.04-.06m-3.7-1.58s.08.06.07.08c-.02.03-.11-.02-.16-.03-.02,0-.09-.03-.08-.07.02-.05.13,0,.17.01m-3.47-1.98s-.09-.07-.13-.11c-.02-.02-.07-.06-.06-.08.01-.03.08,0,.11,0,.06.02.13.04.22.11.04.03.19.12.16.17-.04.06-.21-.06-.31-.1m-5.78-.8s.11,0,.16.05c.05.04.09.11.06.12-.03.02-.09-.04-.13-.07-.04-.03-.11-.09-.09-.11m.39-2.4c.02-.07.19-.08.31.02.13.11.15.28.08.32-.04.03-.15-.04-.2-.09-.08-.07-.21-.18-.19-.25m.32,2.08c-.11-.08-.17-.18-.14-.21.05-.07.23.06.34.12.06.03.18.12.17.17-.03.09-.25,0-.37-.08m-1.18-2.79s.15.06.19.1c.05.06.15.18.11.22-.02.02-.09-.03-.15-.08-.06-.06-.2-.19-.15-.24m-.09-.59s.12.07.14.09c.02.03.07.09.05.1-.02.02-.07-.02-.09-.05-.03-.03-.15-.11-.1-.15m-.27-.54s.08.02.1.04c0,0,.03.03.02.04-.01.02-.05,0-.08,0,0,0-.06-.05-.04-.07m-.16.59s.05.06.04.08c-.01.02-.06,0-.09-.03-.04-.03-.07-.09-.05-.11.02-.02.07.03.1.06m-.03-.71s.06.02.08.03c.02.01.04.04.03.06,0,.01-.04,0-.06-.02-.02-.01-.07-.05-.05-.07m-2.49-2.96s.07.11.05.13c-.03.02-.1-.07-.15-.11-.01-.01-.04-.06-.02-.07.02-.02.08.01.12.05m-.11.25s.05.05.06.07c.03.08.12.2.07.23-.04.03-.16-.04-.19-.1,0-.02.02-.02.02-.04-.03-.1-.08-.2-.15-.29.06.05.13.09.19.14m.01.53c.07.09.17.14.25.22.15.16.29.32.44.47.02.02.02.05.03.07.04.06.15.12.14.17-.02.07-.15,0-.23-.03-.04-.01-.08-.09-.13-.14-.14-.14-.29-.26-.43-.41-.17-.19-.35-.38-.5-.58-.07-.09-.08-.22-.11-.33,0-.01.03-.03.05-.03.06.02.12.03.14.05.19.16.23.37.35.52m-.12.29s.04.07.03.08c-.01.02-.06.02-.07,0-.05-.04-.09-.1-.14-.15-.04-.04-.08-.11-.11-.12-.13-.03-.22-.08-.3-.25-.04-.11-.16-.21-.23-.32-.05-.08-.06-.16-.11-.24-.03-.06-.09-.12-.14-.15-.14-.08-.27-.15-.3-.34,0-.03-.03-.07-.06-.1.02-.02.03-.03.05-.05.18.21.21.27.36.41.4.35.65.84,1.02,1.23m-3.8-8.38s0-.04.01-.04c.02,0,.05.05.08.08.02.02.03.05.05.07-.04-.04-.09-.07-.13-.11m-1.51-2.8c-.03-.1-.13-.26-.08-.31.01-.01.04.02.04.03.05.14.22.34.16.42-.02.02-.06-.04-.08-.07-.01-.01-.02-.04-.02-.04-.01-.02-.02-.03-.02-.04m-.22-1.48s-.16.01-.19-.14c-.01-.07.06-.08.08-.07.04.02.09.06.12.11.01.01.01.09,0,.11m-1.81,2.75s-.04-.04-.06-.05c-.01-.03-.03-.06-.04-.09-.06-.12-.11-.25-.15-.38-.01-.04-.02-.11,0-.12.02,0,.05.05.07.08.04.08.08.17.11.21.04.08.07.13.07.17,0,.06.03.15.02.19,0,0-.02,0-.02,0m-.13-10.32s.03.03.04.04c0,.01,0,.05,0,.05-.01,0-.03,0-.03-.02,0-.01-.01-.06,0-.07m.4,2.04s.06.02.07.05c.06.11.04.19.03.31-.02-.08-.08-.17-.11-.26,0-.03-.01-.08,0-.1m.32,2.09s-.05-.04-.05-.07c0-.04-.03-.11,0-.12.03,0,.06.06.07.12,0,.03,0,.06-.02.07m-.06-1.17c-.06,0-.15.03-.2-.05-.06-.13-.03-.16.04-.42.01.11.1.19.15.29.02.03.05.07.05.09,0,.04-.03.09-.04.09m-1.38-16.11c-.02.14-.06.32-.13.37-.01,0-.03-.02-.02-.02.04-.14.08-.28.12-.42,0-.02.02-.04.03-.03.01.01,0,.07,0,.1m-1.23.25s-.06-.11-.04-.19c0-.04.03-.06.04-.06.04,0,.03.13.04.19,0,0-.02.06-.04.06m-.02-.73s-.01.07-.03.07c-.02,0-.01-.09,0-.13,0-.02,0-.13.04-.12.05,0,0,.14,0,.18m-.59.83s-.05.09-.08.12c0,0-.03-.05-.03-.05.02-.05.04-.16.08-.16.03,0,.03.09.02.1m-.14-.37c0,.09-.02.18-.03.27-.01.07-.03.14-.06.19-.01.02-.07-.02-.07-.04,0-.07.02-.16.05-.23.02-.07.1-.14.09-.19.03-.02,0-.16.03-.17.03,0,0,.11,0,.17m-.17,1.4s-.04.09-.07.08c-.04-.02-.04-.15-.04-.23,0-.03.05-.18.1-.16.06.03.02.21.02.31m-1.67-5.31s0,.09,0,.14c0,.06.02.12,0,.17-.01.02-.03,0-.03,0,0-.1-.01-.2,0-.3,0-.04.02-.25.09-.23.06.02-.03.18-.03.23m-1.65-5.31h0Zm-3.54,25.5c.13-.1.23-.04.27.11-.07-.07-.17-.1-.32-.07.02-.01.03-.03.05-.04-.02.01-.03.02-.05.03.09-.39,0-.78-.27-1.03.43.31.63.77.32.99m.52-2.43s.1-.05.17-.12c-.08.08-.14.11-.17.12m4.55,13.3s.01.03.02.05c.01-.05.02-.1.02-.14.16.32.47.48.89.41-.36.06-.76-.04-.91-.28-.1.39-.49,1-.06,1.02-.47-.03-.02-.67.04-1.07m31.73,24.97s.09,0,.14.03c-.05-.02-.09-.02-.14-.03m3.36.68s.06,0,.07,0c0,.03,0,.05-.01.06.02,0,.01-.04.01-.06m11.75-6.75s.08-.06.13-.07c.11-.02.25-.03.26.03.01.07-.19.09-.29.12-.02,0-.11-.03-.11-.07m1.86-1.98s.09-.05.14-.06c.04,0,.13,0,.13.02,0,.05-.14.07-.22.09-.01,0-.03-.03-.05-.05m.34-.05s.02-.06.05-.07c.06-.01.13.03.13.07,0,.02-.03.06-.08.06-.06,0-.09-.04-.11-.06m-1.25-1.03c-.19.04-.38.07-.57.09-.05,0-.11,0-.17,0,.04,0,.08-.03.12-.06.02-.02.03-.03.05-.05,0,0,0,0,0,0,.1-.09.2-.15.3-.18.02,0,.04-.01.05-.02.15-.03.29-.01.44.03,0,0-.02.02-.03.02-.02.01-.05.04-.05.05.09.13-.07.1-.15.12m-1.14-.37c-.06,0-.18-.05-.16-.15.03-.13.2-.18.3-.14.06.02.11.11.09.18-.03.1-.16.11-.23.11m.06.47s0,0,0,0c0,0-.02,0-.03,0,.01,0,.02,0,.03,0m-17.82-3.97c.03.08.12.17.06.27-.05.09-.18.11-.23.09-.12-.05-.23-.14-.32-.23-.03-.03-.05-.13,0-.19.04-.06.11-.06.16-.06.09,0,.22-.04.25.05,0,0,0,.01,0,.02,0,.05.09.02.1.05m-3.61-1.93c-.05.08-.15.05-.22.06-.05,0-.09-.03-.14-.06-.04-.03-.11-.06-.13-.12-.03-.08-.07-.19,0-.28.06-.09.18-.09.24-.06.1.04.18.13.25.22.03.05.06.17,0,.25m-5.06-5.01s0,.04-.02.06c-.01,0-.03,0-.03,0,0,0,0-.03.01-.04.01-.01.03-.02.04,0m-.91-2.09c-.05.06-.23.07-.32,0-.11-.09-.08-.29-.12-.43,0-.01.05-.08.08-.09.17-.04.28.03.33.18.04.1.18.17.03.34m-.9,1.93c-.07.08-.18.05-.23.01-.04-.02-.13-.14-.04-.27.1-.13.25-.07.27-.03.03.07.08.2,0,.29m-.91-.75c-.05.06-.14.02-.19-.03-.05-.06-.1-.18-.03-.25.05-.05.12,0,.14.04.04.07.15.16.08.25m-1.59-4.32s-.01-.08,0-.11c.02-.04.09-.11.13-.09.08.04.01.16-.02.2-.03.04-.09.02-.11,0m.07,1.5s0,.05,0,.06c0,.01-.05.04-.06.03-.02-.02,0-.06.02-.07.01-.01.04-.03.06-.02m-.1-.23s0,.03,0,.04c0,0-.03.02-.04.02-.01,0-.02-.02-.01-.04,0-.02.04-.03.05-.03m-1.3.23s-.02-.14.03-.19c.05-.04.1.02.15.03.02,0,.02.03.03.05.11.16.15.14.3-.07.03-.04.06-.11.1-.11.05,0,.06.08.06.12,0,.17-.09.34-.25.42-.09.05-.24.09-.3.02,0-.01.01-.04,0-.05-.01-.1-.11-.14-.14-.23m-.51-.48s-.1.02-.11,0c-.01-.04-.03-.1,0-.15.03-.03.09-.05.12-.02.04.04.02.13-.02.17m-5.05-5.52s.03-.04.05-.07c.1-.16.2-.18.31-.15.14.05.06.18-.02.28-.08.11-.11.21-.11.3-.08-.12-.16-.24-.22-.37m.12.74s-.04-.01-.04-.02c-.01-.04-.07-.11-.03-.14.03-.03.08.04.08.05,0,.04.02.1,0,.11m-.66-2.01s.04-.02.05-.03c.15-.09.2-.05.23.07.05.18.11.36.18.54.04.1.05.18-.13.23,0,0,0,0,0,0-.11-.27-.22-.54-.33-.81m.09,1.15s-.05-.03-.07-.06c0-.01-.03-.09,0-.1.03,0,.06.05.07.08,0,.03.01.07,0,.08m1.19-16.17s.07,0,.07,0c0,.03,0,.07-.03.09-.02.01-.05,0-.06,0,0-.02-.02-.06.01-.09m8.64,1.49s0-.02,0-.03.03,0,.03,0c0,0-.02.02-.02.03,0,0-.02,0-.02,0m2.76,8.13s.05,0,.05,0c0,.01-.02.04-.03.06,0,0-.03,0-.03,0,0-.01-.02-.04,0-.07m.1-.35s.02,0,.02,0c0,0,0,.02-.01.02,0,0,0,0,0-.01m34.03,34.57s-.05.06-.06.06c-.04,0-.13.01-.13-.03,0-.04.07-.07.11-.08.05,0,.07.03.08.05m8.67-13.61c-.09.07-.17.14-.26.2-.21.13-.43.24-.62.37-.02,0-.04.02-.06.04-.1.07-.19.15-.28.22-.08.02-.16.03-.24.03-.07,0-.14.02-.2.08-.15.15-.25,0-.35-.09-.08-.08,0-.34.1-.41.05-.03.11-.07.2-.05.26.04.47-.11.7-.25.05-.03.11-.09.14-.06.29.2.58-.12.87-.08m-.54-.91s.03-.06.04-.06c.02,0,.04.03.05.05,0,.02,0,.09-.04.09-.03,0-.05-.06-.05-.08m.92-.82s.12-.02.14.04c.03.07-.02.2-.05.23-.11.09-.23.21-.38.21-.04,0-.13,0-.14-.09-.01-.09.07-.17.11-.21.1-.08.21-.14.32-.18m-.03-.33s-.03-.2.05-.21c.08-.02.08.16.1.23,0,.01-.04.09-.05.08-.04-.02-.09-.05-.1-.1m-3.3,3.92c-.33.21-.64.48-1.03.58-.06.02-.13.09-.2.14-.05.03-.11.07-.16.11.14-.3.28-.59.42-.89.08-.03.16-.05.22-.02.19.07.36.07.53-.08.08-.07.15-.16.23-.2.09-.05.25-.12.28-.06.04.08.09.13.14.16-.15.08-.29.17-.43.26m.19.32s-.01.07-.04.09c-.17.14-.35.27-.53.4-.01,0-.04.01-.04.01-.01-.04,0-.13-.03-.13-.16,0-.17-.02.05-.14.17-.09.36-.14.54-.22.02,0,.04-.03.05-.02m-7.02,10.42s-.06.04-.09.05c-.01,0-.04,0-.04,0,0-.02.05-.03.07-.04,0,0,.06-.02.06,0m8.71-12.86s-.02.04-.03.04c-.01,0-.02-.02-.02-.04,0-.02.01-.03.02-.03,0,0,.02,0,.03.03m-2.08,1.1c.2-.06.35.05.34.22-.02.27-.17.26-.3.3-.17.05-.34.05-.49.15-.08.05-.15.08-.22.1.1-.22.21-.45.31-.67.12-.04.24-.07.36-.11m-1.53-9.85h-.05s.03.08.03.12c0-.04,0-.1-.03-.12m-.08-.01s.03,0,.04,0c-.01,0-.03,0-.04,0m2.28,9.98c0-.13.12-.19.2-.26.01-.01.12.06.12.15,0,.12-.09.26-.19.28-.08,0-.13-.09-.13-.16m-1.97,2.06s.08-.05.13-.07c0,0,0,0,0,0,0,.06.07.06.1.08,0,0,.05-.06.04-.07,0-.02-.02-.06-.03-.09.1-.06.21-.12.31-.18.02,0,.04,0,.06-.01.06-.02.16-.09.19-.05.05.05-.07.16-.13.23-.08.09-.19.16-.27.25-.08.08-.15.05-.21.06-.1.03-.2.13-.3.2-.05.04-.1.07-.14.11.08-.16.16-.31.25-.46m4.95-9.51c-.31.07-.62.13-.92.32-.13.08-.26.1-.37-.05-.02-.03-.04-.05-.06-.07,0-.17-.02-.35-.06-.49.07-.01.13-.02.2-.03.1-.02.2-.05.3-.11.11-.06.2-.12.29.09.09.21.19.19.3,0,.03-.05.05-.15.08-.17.06-.03.13-.06.19-.03.08.04.15.14.22.19.09.05.1.13.03.21-.06.07-.13.13-.21.15m-42.16,3.77c-.04.05-.12.03-.15,0-.04-.04-.12-.11-.08-.18.04-.06.14-.08.2-.04.05.04.08.15.03.21m.8-19.41c-.09.07-.28.26-.35.17-.06-.07.09-.24.12-.26.1-.06.25-.18.3-.13.04.04-.04.19-.08.22m-4.82-.44s-.09.01-.1,0c-.01,0,0-.06.01-.07.03-.02.08-.04.09-.04.02,0,.05.06,0,.11m-4.6-8.45s-.07.01-.07,0c0-.03-.04-.09.03-.13.06-.04.1.02.1.03,0,.02-.02.06-.05.09m-.03,6.7s0,.07-.03.09c-.03.02-.06,0-.07,0-.01-.02-.07-.06-.01-.11.06-.05.1,0,.11.02m-4.25,11.41c.05.05.1.11.13.17.03.06.05.11.06.15,0,.03-.01.07-.04.07-.02,0-.04-.04-.06-.07-.05-.08-.1-.15-.14-.23-.02-.03-.06-.08-.05-.11.01-.03.07,0,.1.03m2.37,1.49c.13-.12.24,0,.29.05.03.03.05.15,0,.21-.08.09-.2.03-.28,0-.03-.01-.12-.16,0-.27m1.78,2.25s.03.11,0,.14c-.04.04-.08-.03-.11-.06-.02-.02-.04-.07-.01-.1.04-.04.1-.02.13.02m-.43-2.26s.04-.05.06-.06c.07-.03.16,0,.17.04.03.08.09.21,0,.29-.07.06-.16,0-.2-.04-.04-.05-.07-.14-.03-.23m.3,3.18c.09-.09.23-.04.3,0,.04.02.07.17,0,.25-.08.1-.27.13-.35.04-.07-.08-.03-.22.04-.29m2.76-1.07c.05-.05.16-.04.17-.02.02.06,0,.16-.03.24-.02.05-.11.14-.16.13-.04,0-.02-.07-.02-.12,0-.08-.02-.17.04-.24m5.22,7.16c.22-.02.57-.17.65.04,0,.03-.05.07-.04.1.04.3.42.28.62.44.06.05.12.21.09.26-.07.11-.2.23-.3.27-.07.03-.19-.04-.22-.11-.15-.42-.37-.52-.82-.36-.22.08-.3.02-.29-.25.01-.24.1-.37.32-.39m21.73,9.29s.02.03.01.03c-.08.03-.16.07-.23.1.07-.05.14-.1.21-.13m2.28-.91c.1.01.13.14.11.22-.03.13-.18.15-.27.19-.02.01-.1-.09-.09-.17.02-.11.14-.25.25-.24m.86.52c.1,0,.19-.01.29-.02-.03.02-.09.04-.13.04-.09.01-.26.07-.28,0,0,0,0-.01,0-.02.04,0,.08,0,.12-.01m2.05-.27s0,0,0,0c-.04.01-.09.02-.12.01-.01,0-.02-.01-.02-.02.05,0,.09.01.14,0m19.8-12.81s.15-.02.17.07c.02.11-.08.22-.17.24-.07.01-.16-.05-.17-.13,0-.11.11-.15.17-.17m.19,1.49s-.03.09-.05.11c-.01.01-.08.02-.09-.05,0-.08.06-.09.09-.11,0,0,.05.02.05.05m-.22.56c-.01.07-.02.16-.06.2-.01.01-.03.02-.05,0-.04-.03-.04-.12-.05-.18-.02-.1-.04-.26-.07-.27-.07-.02-.16.02-.22.06-.14.1-.26.24-.4.34-.05.04-.13.02-.19,0-.03-.02-.08-.11-.08-.16,0-.05.04-.13.08-.15.23-.11.42-.28.59-.54.07-.11.15-.14.2.07.02.07.09.14.13.15.13.02.2.05.12.28-.02.05,0,.15,0,.21m-.48-1.68s0-.07.02-.08c.02,0,.03.05.03.07,0,.02-.02.03-.03.04,0,0-.02-.02-.02-.03m.27-1.39s0-.02,0-.02c0,0,0,.02,0,.02,0,0-.01,0-.01,0m-.51-1.17c.05.21.12.3.25.23.04-.02.1-.03.14,0,.05.04.12.1.13.19,0,.12-.09.2-.15.24-.08.05-.18.03-.28.05-.16.03-.4-.2-.47-.46-.05-.2.06-.59.26-.46.04.02.08.12.11.21m-.92-.8c.08-.09.18-.24.28-.18.01,0,.01.06.03.06.05.01.11-.13.11-.17-.02-.15-.1-.18-.18-.15-.02,0-.04.04-.06.03-.05-.02-.11-.05-.16-.09-.02-.02-.02-.15,0-.16.04-.04.09-.04.14-.05.07-.02.14,0,.21-.04.14-.09.23-.05.32.17,0,.02.01.03.02.05.17.44.17.61-.06.94,0,.01-.02.03-.03.03-.17.06-.34.15-.51.17-.05,0-.14-.18-.16-.3-.02-.08.02-.24.06-.29m-.1,2.7s.04.05.04.05c-.04.11-.08.22-.13.33,0,0-.09.01-.1-.09-.01-.16.13-.2.18-.29m-.48-3.24s.13.04.13.13c.01.11-.08.17-.13.22-.03.02-.1-.01-.13-.07-.01-.02-.02-.05-.01-.08.02-.1.08-.17.13-.2m0,.85s.07.01.08.07c.02.13-.05.34-.15.36-.07.01-.11-.08-.11-.15,0-.14.12-.19.18-.28m-.18,7.36c.11.03.2,0,.24-.16.04-.14.1-.17.2-.17.3,0,.42-.11.32-.69-.04-.23,0-.32.15-.38.15-.05.3-.12.45-.17.18-.07.36-.13.53-.2.06-.03.12-.08.18-.12.05-.03.1-.07.15-.09.23-.1.45-.19.68-.28-.05.05-.1.1-.15.16-.19.2-.38.4-.58.59-.03,0-.06,0-.09,0-.05,0-.09.1-.15.14-.07.05-.14.12-.21.12-.17,0-.22.07-.19.34,0,0,0,0,0,0-.08.08-.16.15-.24.23-.02.02-.04.03-.06.05,0-.05,0-.11,0-.16,0-.14-.15-.28-.23-.23-.03.02-.07.1-.07.15,0,.12.08.3.15.36-.29.26-.59.5-.89.73-.02.02-.05.04-.07.05-.19.07-.38.15-.58.21-.15.05-.3.1-.44.08-.16-.02-.19-.21-.09-.41.05-.1.09-.22.12-.34.08-.29.18-.35.33-.16.16.21.34.27.53.32m-.87-6.86s-.08-.1-.08-.13c0-.08,0-.29.09-.29.08,0,.09.18.08.21-.02.08-.03.21-.09.21m.07.91s-.01.08-.03.08c-.02,0-.06.03-.08-.03-.01-.06.03-.09.04-.09.02,0,.06,0,.06.04m.36-1.79c-.02.08-.02.22-.08.24-.02,0-.04-.05-.04-.06.02-.1-.03-.35.07-.35.06,0,.05.15.04.17m-1.06,1.75s.03.1.02.12c-.06.1-.11.23-.18.28-.09.06-.19.06-.27-.03.15-.15.29-.31.4-.49,0,.04,0,.07.03.12m1.83-6.7s0,0,0,.01c0,0,0,0,0-.01m1.02-1.58c.05.01.09.06.1.15-.03-.05-.06-.1-.1-.15m-29.7-1.46c.07-.09.19-.19.24-.19.14.02.38-.08.38.14,0,0-.02.02-.02.03,0,.18.21.09.29.16.03.02.04.13.02.2-.02.06-.12.15-.17.16-.11.02-.22,0-.32,0-.13-.01-.27-.02-.39-.06-.05-.02-.08-.08-.09-.16,0-.08,0-.22.05-.28m-8.24.23s.26-.13.34-.06c.07.06.05.26,0,.33-.13.19-.19.06-.26.03-.09-.04-.18-.11-.08-.31m-.77-3.96c0,.07-.01.16-.05.25,0,.02-.15.17-.21.12-.07-.05.05-.22.09-.31,0-.02.16-.08.16-.06m-.68-.2c.16-.11.31-.2.36-.1.03.06.06.06.06.09,0,.04.01.09,0,.13-.02.04-.09.09-.13.09-.12.02-.23.03-.34.03-.03,0-.06-.04-.05-.08.02-.05.07-.13.11-.16m-.36,1.48s0,0,0,.01c-.02.1.1.08.14.13.01.02,0,.08-.02.12-.03.03-.08.04-.09.03-.11-.07-.21-.15-.31-.24-.02-.02-.02-.09.02-.14.04-.05.1-.04.12-.03.06.03.17.02.16.11m-.27-2.35c.06-.07.16-.08.2-.03.03.04.01.15-.04.21-.06.07-.15.04-.18.02-.03-.02-.04-.12.02-.19m-.58,1.71s.1-.03.12-.02c.11.07.14.27.3.24.01,0,.03-.03.04-.03.08.02.05.22,0,.28-.13.17-.2.06-.25.01-.1-.1-.17-.22-.25-.35-.01-.02,0-.1.03-.14m-.13-.38c.05.05.05.18-.02.27-.07.08-.16.04-.19,0-.03-.04-.07-.15,0-.23.06-.07.16-.08.21-.04m-.38-2.02s.12-.1.16-.06c.03.04-.02.14-.06.19-.04.04-.1.04-.11.02-.01-.03-.02-.09.02-.14m-.23,1.66c.05-.05.13-.07.16-.04.04.03.04.12,0,.18-.06.07-.14.05-.18.03-.03-.01-.03-.11.02-.17m-.51-2.46c.1-.07.28-.19.32-.12.04.07-.11.24-.2.35-.04.05-.16.1-.19.1-.15-.01-.05-.23.08-.33m-.67-1.08s.01,0,.01,0c0,0,0,.02-.01.02,0,0-.01,0-.01,0s0-.02.01-.02m-.02,2.13c.06-.05.12-.03.15,0,.06.05.1.13.15.19.11.12.22.24.48.15.05-.02.12.07.1.14-.04.19,0,.31.07.43.02.04.04.14-.02.2-.07.07-.15.02-.19,0-.19-.15-.37-.3-.54-.47-.11-.12-.2-.27-.27-.42-.02-.03,0-.14.06-.2m-.63-.71c.06-.06.14-.03.17,0,.1.1.19.22.26.35.02.04.03.16-.05.23-.07.06-.13,0-.17-.02-.06-.03-.16-.05-.13-.14,0,0,0,0,0,0,.04-.12-.12-.11-.15-.19-.02-.04,0-.16.06-.22m-.04,2c.1-.1.15,0,.16.03.01.04.02.12-.04.18-.04.04-.1.02-.11,0-.02-.03-.12-.09-.01-.2m-.49-4.42c.06-.05.16-.08.2-.02.04.06.01.2-.07.28-.07.07-.18.04-.19,0-.02-.06-.03-.18.06-.26m.12,3.83c.09-.05.23-.09.25-.01,0,.01-.03.04-.03.05,0,.01.01.02.02.03.01.09.12.15.04.27-.09.13-.25.11-.36.13-.13.03-.16-.07-.11-.2.03-.08.13-.22.2-.26m-.7-2.86c.06-.05.11,0,.14.02.11.1.22.2.32.32.03.04.08.13,0,.21-.08.08-.16.02-.23.02-.03,0-.07-.01-.06-.05,0,0,0,0,0,0,.07-.19-.16-.21-.22-.33-.02-.04-.02-.14.04-.19m-.2-1.47s0,.02,0,.03c0,0-.02.01-.02,0,0,0,0-.02,0-.03,0,0,.02-.01.02,0m-.05,1.18s.04-.04.06-.03c.02,0,0,.05-.02.06s-.03,0-.05,0c0,0,0-.03,0-.03m.07,7.96s.05.1,0,.16c-.06.07-.18.08-.23.03-.05-.05-.06-.17,0-.23.08-.08.16,0,.22.04m-.23-8.26s.03,0,.05,0c0,0,0,.03-.01.04-.02.02-.05.02-.05.01,0-.01,0-.03.02-.05m.01,1.99s-.05.1-.08.12c-.04.02-.11.04-.12.02-.12-.15-.22-.31-.35-.45-.14-.15-.31-.28-.46-.43-.04-.04-.06-.1-.05-.17,0-.03.1-.15.12-.15.07,0,.15,0,.2.03.06.04.04.2.15.18,0,0,0,0,.01,0,.16-.02.12.22.19.33.06.12.09.26.3.24.16-.01.16.13.11.3m-.57-4.35s.05-.04.07-.03c.02.01,0,.05-.02.06-.02.02-.04,0-.05,0,0,0,0-.03,0-.03m-.42-.42c.05-.03.06.01.07.03,0,.01-.01.05-.04.07-.03.02-.05,0-.06,0,0-.01-.02-.06.03-.09m-.27,1.21s.09,0,.11.01c.2.2.42.38.53.68.05.15.2.23.31.35.04.05.07.11.1.17,0,.02,0,.08-.04.12-.04.03-.09.02-.11.01-.04-.03-.08-.06-.11-.11-.04-.06-.05-.16-.1-.21-.07-.07-.16-.11-.25-.17-.06-.04-.17-.05-.17-.12,0-.28-.18-.43-.27-.64-.01-.03-.04-.07,0-.1m-.38-1.75c.09-.09.23-.09.29-.04.08.07.08.25-.04.34-.12.09-.2-.03-.26-.09-.04-.04-.08-.14,0-.22m-.38.66c.07-.05.12,0,.15.04.08.09.27.13.2.29,0,0,0,0-.01,0-.07.17.14.2.2.31.02.03.04.09,0,.14-.05.05-.15.04-.16.02-.15-.2-.3-.4-.43-.61-.02-.03,0-.14.06-.19m-.32,1.59c.09-.07.15.03.19.07.06.06.21.07.05.25-.02.02-.22.03-.27-.05-.04-.07-.06-.2.03-.27m-.4-.49s.11-.06.13-.03c.03.03-.01.11-.06.15-.04.03-.1.02-.1,0-.01-.03-.02-.09.03-.12m-.15,4.44c.11-.06.27-.18.31-.15.07.06.09.18.11.29,0,.01-.09.11-.13.13-.11.04-.23.08-.34.09-.09,0-.17-.01-.23-.05-.02,0,.04-.12.07-.15.08-.09.15-.13.21-.16m-.29-5.43s.13-.04.16,0c.03.05.01.15-.05.2-.06.04-.12,0-.13-.03-.02-.04-.03-.12.03-.18m-.84-3.08c.06,0,.16,0,.14.07,0,0-.03.02-.03.03-.05.12.09.16.13.25,0,.02.02.06,0,.09-.03.03-.08.03-.11.04-.17.01-.34-.16-.31-.32.02-.09.08-.16.18-.15m-1.22-.09c.1-.07.19,0,.22.06.03.06.05.2-.05.27-.1.07-.19,0-.23-.07-.03-.07-.03-.19.06-.25m-.12-.13s.01,0,.01,0c0,0-.01.01-.02.01,0,0,0-.01,0-.01m-.46-.73s.05-.02.05-.01c.08.09.3.12.23.27-.02.05-.1.11-.16.12-.16.01-.11-.21-.16-.31,0,0,.01-.04.03-.06m-.79,10.95c.06-.06.13,0,.17.02.08.04.16.1.23.15.04.03.07.06.09.1.01.05.05.12,0,.18-.06.06-.15.02-.18,0-.1-.08-.25-.13-.31-.31,0-.01-.05-.08,0-.13m-.19.68s-.1.03-.13,0c-.02,0-.05-.08,0-.14.06-.06.11,0,.12.01.02.02.03.08,0,.11m-.22-11.64s.1-.05.1-.05c.04.04.08.09.08.15,0,.05.02.14-.05.18-.07.04-.13,0-.16-.05-.04-.06.01-.16.03-.24m-.4-.78s.09,0,.1.01c.01.03.06.1-.02.15-.08.05-.12-.01-.12-.03,0-.03,0-.1.04-.13m-.14,1.14s.15-.08.17-.02c.02.06-.09.14-.14.18-.02.02-.1,0-.11-.03,0-.03.04-.1.08-.13m-2.17-.73c.17.02.36,0,.44.14.02.03.14.05.2,0,.06-.05.02-.11.03-.17,0-.01,0-.03-.01-.03-.19-.14-.1-.33.13-.55.04-.04.05-.09.06-.14.05-.12.08-.24.15-.36.04-.07.18-.17.24-.18.13-.02.17.14.09.26-.03.05-.09.09-.13.13-.09.1-.16.18,0,.22.23.07.16.29-.13.5-.17.13-.34.26-.31.44.01.08.05.1.16.01.28-.22.3-.2.43.03.05.09.06.23.31.16.06-.02.14.11.12.19-.03.1-.15.22-.23.33,0,.01-.06.03-.07.02-.12-.11-.35-.03-.53-.05-.2-.02-.34-.12-.29-.35.02-.1-.03-.09-.14-.02-.26.17-.31.17-.35-.02-.03-.12-.1-.15-.26-.12-.19.05-.29-.02-.27-.18.03-.21.13-.31.35-.28m-.98-.59s.1-.02.12,0c.03.03.04.08.05.13.04.13.07.25.11.38,0,.03.03.09,0,.11-.04.02-.07-.02-.08-.04-.06-.07-.12-.14-.16-.24-.03-.07-.04-.16-.06-.24,0-.03,0-.07.03-.1m-1.41,1.37c.06-.03.14.01.15.05.05.17.08.35.11.53,0,0-.07.05-.08.05-.07-.03-.14-.07-.16-.09-.09-.12-.09-.24-.11-.36,0-.04.02-.14.08-.18m-.48.51s.14-.03.16.04c.03.08-.05.23-.15.27-.06.03-.13-.02-.13-.04.02-.09.02-.21.11-.27m-2.15,11.96s.03,0,.03,0c0,.01,0,.03-.01.04-.02.01-.04,0-.05,0,0-.01,0-.03.02-.04m-.18-.13s-.01.1-.05.16c0,0,0,0,0-.01-.02-.1-.06-.2-.09-.3.05.05.1.09.14.15m-.01,2.88s.05.07.07.11c.08.12.15.24.23.36.03.04.06.12.09.11.03-.01,0-.09-.02-.13-.05-.17-.1-.35-.15-.52,0-.03-.02-.08,0-.09.02-.01.05.03.07.06.07.1.14.21.19.33-.02.08-.02.14,0,.18.12.17.16.37.18.59,0,.08.06.14.14.18,0,.02.01.05.02.07.03.12.14.27.09.35-.05.09-.19-.05-.29-.08-.03,0-.07-.04-.09-.02-.02.03.01.09.03.13.05.14.11.27.17.41,0,.02.01.08,0,.08-.02,0-.04-.04-.05-.06-.08-.15-.12-.38-.24-.45,0,0-.02.01-.03,0-.12-.09-.2-.22-.26-.37,0,0,0,0,0,0,.06.2.11.4.18.59.18.47.36.94.58,1.38.09.18.11.32.12.48,0,.04.02.12.04.13.03.03.08.02.11.01.03,0,.04-.07.08-.05.04.02.05.1.08.16.1.18.19.36.29.54.02.03.06.08.08.06.02-.02-.01-.07-.03-.1-.14-.32-.39-.61-.37-.99,0-.1-.13-.27-.19-.41-.03-.06-.09-.15-.06-.19.02-.03.07.04.11.06,0,0,.02,0,.03,0,.05.02.12.03.16.08.04.05.05.14.08.21.03.05.07.15.11.14.04,0,.02-.1.02-.15,0-.06-.04-.12-.05-.18,0-.02,0-.05,0-.06.01,0,.04.03.04.04.07.16.15.33.22.49.03.07.09.18.05.21-.04.02-.09-.08-.13-.12-.03-.03-.06-.1-.09-.09-.03.02.01.1.03.15.04.1.11.2.13.3.04.16.09.26.22.33.12.06.24.29.26.4,0,.09.07.22.13.28.16.15.33.28.49.41.04.03.11.04.12.02.02-.04,0-.1,0-.16,0-.02-.05-.03-.08-.06-.03-.03-.08-.06-.09-.09-.05-.18-.16-.3-.28-.43-.07-.08-.12-.24,0-.2.11.03.15,0,.15-.07,0,0,0,.02.02.02.02.03.08.08.11.06.06-.03.14-.09.18-.15.02-.03,0-.1,0-.13-.07-.14-.2-.21-.32-.27-.01-.02-.02-.04-.03-.05-.04-.08-.05-.18-.09-.27-.03-.07-.06-.16-.1-.19-.11-.08-.22-.18-.32-.29.03-.05.04-.13.06-.18,0-.02.02-.04.03-.06,0,0,0,0,.01,0,.01,0,.02-.03.01-.05.01-.02.02-.03.04-.04.05-.01.06.06.08.1.04.09.07.2.12.28.08.12.18.23.25.35.04.08.01.21.06.28.06.08.15.13.25.17.02,0,.15-.1.15-.12,0-.1-.03-.19-.07-.27-.03-.08-.1-.14-.13-.23-.01-.04,0-.12.04-.16.02-.03.11-.04.14-.02.08.05.16.1.2.18.05.11.09.17.26.06.05-.03.15-.02.17.01.03.05.05.16.02.2-.12.16-.15.37-.38.48-.17.08-.16.24-.12.37.04.11.12.17.26.09.18-.1.13-.21.1-.31,0-.01-.01-.03,0-.04.01-.05,0-.11.04-.14.05-.03.11,0,.13.03.04.11.1.22.1.35,0,.45.12.84.39,1.1.2.2.5.27.87.12.19-.08.26.03.23.17-.07.35.02.57.28.69,0,0,.01,0,.01.01.02.12.17.24.07.35-.1.1-.21-.04-.28-.11-.07-.07-.08-.21-.15-.29-.05-.06-.13-.15-.22-.09-.06.04-.04.14-.05.21-.05.3.12.4.29.51.03.02.09.07.05.12-.04.05-.1.01-.14,0-.06-.03-.09-.1-.15-.14-.06-.04-.12-.08-.19-.11-.02,0-.08,0-.11.03-.02.03.01.05.03.08.11.21.25.4.32.63.12.45.44.7.78.91.25.15.44.35.55.63.07.18.17.3.38.29.2-.02.33.07.4.26.03.08.09.18.16.19.2.04.28.18.36.35.09.2.19.39.29.58.05.11.12.21.15.34.04.18.11.29.31.26.06,0,.17-.01.18.05.01.06-.06.15-.11.2-.16.16-.09.21.02.24.06.02.13,0,.19.02.38.08.76.17.97.53.23.39.57.6,1.05.56.13-.01.24-.09.28-.24.03-.14.13-.33-.05-.37-.04,0-.1-.07-.09-.1.03-.07.09-.17.14-.19.14-.07.28-.13.39-.01.07.07.18.09.27.14.09.05.18.08.25.15.14.15.26.32.39.47.06.07.13.11.19.18.06.08.12.19,0,.33-.11.13-.19.07-.27,0-.06-.05-.13-.09-.2-.11-.06,0-.17-.02-.21.06-.05.08.02.16.06.22.17.28.47.35.76.44.09.03.18.08.25.15.03.02.05.1.01.16-.03.05-.11.07-.15.06-.12-.03-.22-.09-.34-.13-.04-.01-.11-.03-.14.02-.04.06,0,.12.03.16.03.04.08.07.13.09.26.12.53.21.7.46.03.05.18.04.24-.02.21-.19.2-.09.19.1,0,.1.05.2.12.24.19.13.4.23.61.33.18.09.3.22.21.52,0,.03-.02.08,0,.09.02,0,.05-.02.06-.04.14-.25.22-.12.32-.05.06.04.12.08.18.12.08.06.26.06.15.25-.1.17-.16-.01-.24-.03-.07-.02-.16-.03-.24.02-.01,0-.03.03-.04.05-.04-.02-.1-.04-.11,0-.02.04.04.07.08.08-.01.04-.02.07-.02.1,0,.07.06.16.12.17.21.06.43.11.66.13.36.03.62.2.83.47.13.17.29.27.53.23.12-.02.25.01.36.06.32.14.54.46.93.47.03,0,.05.04.08.05.09.05.18.1.27.14.07.03.16.04.23.08.27.14.55.28.82.45.09.06.17.17.2.3.07.24.19.32.44.25.1-.03.21-.04.29-.02.18.04.36.11.53.17.1.04.2.08.28.15.08.06.1.17,0,.31-.17.24-.17.34.02.42.2.08.41.13.62.17.11.02.22.03.33.04,0,0,0,0,0,.01,0,.03.05.03.06.03.02,0,.04,0,.05,0,0,0,.01-.02,0-.02,0,0,0,0-.02,0,.22.03.44.07.63.19.02.01.03.02.05.03-.02,0-.03.01-.04.03-.01.03,0,.07.04.08.02,0,.06-.01.06-.02,0-.02,0-.04,0-.06.21.11.46.15.74,0,.05-.02.1-.02.15-.01.22.06.44.11.65.18.13.04.21.39.13.5-.04.06-.13.13-.1.18.03.07.16,0,.21-.06.14-.18.27-.17.4-.12.12.05.24.1.35.15,0,0,0,0,0,0,0,.05.1.06.13.06.01,0,.02,0,.04,0,.14.06.28.11.42.17.08.03.17.02.26.02.17,0,.36-.06.51-.01.02,0,.03.01.05.02-.02,0-.04,0-.06,0-.08,0-.17.01-.21.05-.03.03-.06.12,0,.16.04.02.09-.01.13-.01.03,0,.06.01.08.03.06.03.1.09.17.09.03,0,.05-.04.05-.06-.02-.07-.01-.17-.09-.22.22.09.42.21.63.3.07.03.14.07.22.06.2-.02.31.05.28.34,0,.01,0,.02,0,.03-.02.04-.03.11-.05.15,0,0,.02.02.02.02.06-.02.14-.02.17-.06,0,0,0,0,0,0,.02,0,.03-.02.05-.03.02-.01.03-.03.05-.04.09-.04.2-.04.34,0,.06.02.12.03.16.03.05,0,.15,0,.15-.05,0-.03-.08-.07-.12-.07-.15,0-.3,0-.45,0,.02-.02.04-.04.06-.06.07-.06.15-.13.22-.13.33.03.66.06.97.12.12.02.21.1.25.24-.02,0-.04.02-.04.03,0,.01.04.02.05.02,0,0,0,0,0,0,0,.04.01.09.01.14,0,.19.22.36.36.29,0,0,.01,0,.02-.01.02.02.05.03.1.02.11-.01.29-.1.24-.19,0,0-.02-.01-.03-.02.03-.02.05-.03.08-.05,0,.04.03.06.06.07.05,0,.04-.06.07-.09.04-.03.09-.05.13-.06.04-.02.12-.01.12-.04,0-.03-.07-.04-.12-.03.12-.05.22-.04.31.05,0,0-.01,0-.01.02,0,.02.03.03.05.03,0,.01.02.02.02.03.03.05.06.11.1.13-.05.02-.09.05-.1.09,0,.03.05.04.05.04.07-.03.13-.05.2-.08.34.08.72-.01,1.07,0,.02,0,.03,0,.05-.02.03,0,.06,0,.1,0,.11,0,.24-.04.29-.08.03-.03.03-.05.03-.08.07,0,.13,0,.2.02.17.04.36.03.53.05,0,0,0,0,0,0,0,.05.1.11.17.11.02,0,.04-.01.05-.02,0,0,0,0,0,0,.07.29.26.22.44.22.14,0,.28.04.43.05.08,0,.18.03.23-.02.01-.01.03-.03.04-.04.09,0,.18.01.25,0,.25-.07.35-.31.69-.3.01,0,.04-.04.03-.06,0-.01-.04-.03-.07-.03.15-.02.29-.02.43.02,0,0,0,.03.02.03.1.02.2.11.32,0,.03-.03.14-.07.21-.05.02,0,0,.04.03.04.07,0,.13-.06.17-.1.02-.02,0-.05-.03-.08.02.01.05.03.07.05.04.03.1.03.15.03.1-.01.21-.02.31-.04-.08.05-.14.11-.16.18,0,.02,0,.04-.03.05-.13.09-.27.18-.39.27-.02.02-.05.06-.03.07.03.02.08,0,.12-.02.11-.04.2-.14.35-.03.03.02.15,0,.22-.02.02,0,.04-.07.02-.07-.22-.13-.1-.27,0-.41,0-.01.03-.02.05-.03.02,0,.05,0,.07,0,.02,0,.02.03.02.04-.01.02-.06.03-.05.05.02.03.11.01.16,0,.21-.02.41-.05.62-.07.06,0,.17-.01.19.03.03.04-.04.11-.09.12-.21.05-.42.08-.63.12-.07.02-.19.05-.19.1,0,.04.08.05.12.06.15.03.3.05.46.07.03,0,.08-.01.11-.03.13-.06.25-.13.38-.2.07-.04.19-.09.18-.12,0-.16.11-.31.37-.22.06.02.28-.13.24.05-.03.13.04.13.15.13.08,0,.16-.02.25-.03.05,0,.12.01.14-.02.02-.03-.06-.05-.07-.08-.02-.05-.05-.1-.04-.14,0-.02.11-.04.17-.05.12,0,.23,0,.35-.01.03,0,.05-.01.07-.02.26.16.54.28.84.35,0,0,.02,0,.03,0,.06.02.13.04.19.05-.07.12-.12.24-.15.35-.06,0-.12.02-.19.01-.19-.01-.66.25-.53.32-.08.01-.09.13-.16.15-.3.08-.61.15-.92.2-.35.06-.71.09-1.07.12-.18.02-.37.06-.54.04-.11-.01-.15,0-.23.04-.12.07-.28.15-.41.16-.45.01-.89-.02-1.34-.05-.04,0-.07-.02-.11-.04-.02-.01-.02-.04-.04-.05-.03,0-.06.03-.08.04-.03.02-.03.07-.07.07-.06,0-.03-.08-.03-.13,0-.02,0-.06,0-.06-.03,0-.08,0-.11,0-.02,0-.02.04-.04.06-.01.02-.02.06-.03.06-.39.05-.78.09-1.16.13-.43.04-.85-.13-1.3-.06-.27.04-.59-.01-.89-.04-.08,0-.2-.02-.23-.07-.03-.05.08-.09.1-.14.01-.03-.03-.09-.03-.09-.13.01-.26.03-.39.04-.1,0-.22-.01-.21.1,0,0-.07.02-.11.02-.12,0-.24-.02-.37-.03-.25-.02-.5-.05-.75-.08,0,0,0-.06-.01-.09,0-.02-.01-.05-.04-.07-.1-.06-.31-.1-.31-.19,0-.06.15-.06.23-.08.03-.01.06-.02.09-.03.02-.01.07-.03.06-.05-.02-.02-.07,0-.1,0-.07,0-.14,0-.21,0-.19-.03-.38-.08-.57-.09-.07,0-.22.02-.22.08,0,.04.11.06.17.08.12.05.24.09.36.13.02,0,.03.06.02.06-.12.05-.23.13-.36.13-.25,0-.51-.06-.76-.09-.36-.05-.72-.09-1.07-.16-.21-.04-.42-.12-.63-.17-.14-.04-.29-.06-.44-.1-.04-.01-.12-.05-.11-.08.01-.03.1-.01.15-.01.11,0,.24.02.33,0,.07-.02.1-.09.15-.14,0,0-.01-.03-.04-.04-.07-.01-.1.05-.16.07-.07.02-.15.03-.22.04-.07,0-.14-.02-.2,0-.33.04-.66.05-1-.11-.11-.06-.12-.04-.06-.09,0,0,0-.04,0-.04-.08-.02-.17-.05-.25-.05-.12,0-.23.03-.35.01-.16-.02-.31-.07-.47-.11-.03,0-.07,0-.08,0-.07.14-.18,0-.27-.03-.08-.03-.15-.09-.23-.13-.2-.09-.41-.16-.59-.27-.1-.06-.16-.06-.32-.16-.01,0-.03,0-.04,0-.07,0-.14-.01-.2-.03-.14-.05-.28-.12-.41-.16-.2-.05-.42-.06-.61-.13-.53-.18-1.04-.41-1.56-.61-.33-.13-.68-.19-1-.33-.35-.16-.7-.29-1.02-.55-.26-.22-.68-.34-1.02-.5-.39-.18-.79-.36-1.17-.56-.14-.08-.25-.21-.39-.29-.18-.11-.37-.19-.55-.3-.35-.21-.69-.43-1.02-.67-.26-.18-.5-.39-.74-.59-.03-.03-.08-.07-.08-.09.03-.14-.12-.19-.22-.25-.12-.07-.27-.19-.35-.18-.22.03-.39-.1-.56-.23-.26-.19-.51-.4-.78-.59-.49-.36-.97-.73-1.47-1.09-.33-.24-.73-.37-1-.73-.05-.06-.09-.12-.13-.18-.03-.04-.05-.08-.08-.11-.01-.01-.05.02-.09,0-.05-.01-.11-.02-.16-.05-.38-.32-.75-.65-1.11-.99-.18-.17-.34-.35-.52-.53-.03-.03-.07-.07-.1-.06-.02,0-.02.04-.01.06.05.15-.05.08-.11.03-.09-.08-.18-.16-.26-.26-.07-.08-.21-.21-.17-.27.03-.06.17.05.26.07.03,0,.06.03.07.02.02-.02.05-.04.05-.08,0-.06-.02-.12-.04-.19-.01-.05,0-.13-.03-.15-.23-.18-.4-.57-.72-.48,0,0-.03-.02-.05-.03-.24-.24-.47-.48-.7-.73-.04-.05-.13-.12-.11-.16.02-.04.1.03.14.04.04,0,.1.02.1-.02,0-.04-.07-.05-.1-.08-.05-.05-.1-.1-.15-.14-.04-.04-.09-.07-.13-.1,0,0-.03.02-.03.04,0,.02.03.06.02.06-.02,0-.05-.04-.06-.06-.02-.05-.03-.1-.06-.15-.04-.06-.1-.18-.12-.18-.19,0-.21-.17-.28-.3-.04-.07-.09-.15-.14-.22-.09-.13-.18-.26-.27-.4-.03-.05-.05-.11-.09-.15-.14-.15-.3-.29-.43-.46-.08-.1-.16-.2-.24-.3-.18-.31-.36-.63-.53-.95-.32-.61-.67-1.17-1.09-1.66-.03-.05-.06-.09-.08-.14-.02-.03-.06-.09-.08-.08,0,0,0,.02,0,.03-.08-.08-.16-.16-.25-.24.04.01.07.02.11.02.01,0,.03-.07.02-.09-.04-.06-.09-.12-.14-.16-.05-.04-.13-.05-.16-.1-.06-.09-.11-.2-.15-.3,0-.02,0-.07.01-.07.06,0,.1.13.15.2.03.03.08.1.1.08.03-.02,0-.11-.02-.16-.18-.38-.37-.76-.54-1.15-.08-.19-.21-.36-.18-.58.01-.08-.11-.25-.18-.37-.04-.08-.11-.16-.13-.24-.08-.25-.11-.53-.22-.74-.25-.46-.41-.95-.55-1.45-.01-.05.02-.1.03-.15.02-.06.06-.12.07-.19,0-.01-.06-.08-.1-.12-.07-.1-.18-.06-.23-.26-.08-.31-.19-.61-.27-.91-.02-.06,0-.12,0-.18,0-.04.03-.07.03-.1-.02-.16-.1-.37-.07-.49.06-.24-.04-.41-.13-.58-.08-.17-.17-.31-.11-.51,0-.03-.02-.1-.04-.14-.07-.16-.15-.32-.1-.49,0-.03.02-.07.04-.09.03.28.12.53.24.75.12.43.24.86.25,1.31,0,.02.02.03.02.05.09.21.2.42.27.64.18.58.26,1.19.57,1.74.14.25.17.58.37.8,0,0,.01.02.02.03-.13-.34-.18-.79-.3-1.13-.1-.28-.21-.55-.3-.83-.1-.32-.18-.65-.28-.97-.12-.4-.25-.79-.35-1.2-.01-.05-.02-.1-.03-.14.08.05.17.06.28.04.02.08.04.16.06.23.08.3.16.59.24.88,0,.1.02.2.07.3,0,0,.01.02.02.03,0,0,0,.02,0,.02,0,0,0,.01,0,.02,0-.01,0-.02,0-.03.11.19.29.34.26.62-.07-.07-.12-.15-.16-.24.05.2.11.4.16.6.05.19.1.39.15.59m-1.32-2.11s-.06-.07-.07-.11c-.02-.06-.06-.16-.03-.17.03-.02.07.08.09.14.02.05.03.13,0,.14m-.15-.66s0,.06-.01.08c0,0-.05.01-.06-.03-.02-.05,0-.1.03-.1.02,0,.04.04.04.05m-.16-8.81s.04.11.02.17c0-.06-.01-.11-.02-.17m.47,6.94c.04.2.01.31-.09.33-.03-.02-.06-.06-.06-.1,0-.02.03-.03.03-.05.01-.07-.03-.12-.07-.18,0,0,.01,0,.02.01.01,0,.03.03.04.02.02-.02,0-.08-.01-.12,0-.02-.03-.02-.05-.04,0,0-.01-.02-.02-.02,0-.06.03-.12.08-.15.02-.02.05-.03.07-.03.02.05.03.1.02.15,0,0,0,0,0,0-.02.06.03.13.05.2m.1-.33s.05.03.07.04c0,0,0,.01.01.02,0,0,0,.02,0,.02.05.23.1.45.16.68-.03,0-.06,0-.09,0-.01,0-.03,0-.05,0-.03-.22-.07-.44-.1-.66,0-.02,0-.05,0-.08m.31-10.15s0-.03.02-.04c.01,0,.02,0,.03.02,0,0,0,.02,0,.02-.01,0-.03.01-.04,0m.52,12.64c-.02-.09-.05-.21,0-.22.04-.01.06.06.09.13-.03.03-.06.06-.09.09m-.06-13.49c.07-.04.13-.03.15,0,.02.05-.05.13-.1.17-.04.03-.15.06-.17.02-.03-.05.05-.15.13-.19m-.05,13.62c-.06.08-.1.16-.13.23-.01-.14-.03-.28-.06-.41-.04-.17-.06-.34-.1-.51,0-.02-.01-.04-.02-.06.03-.01.07-.03.1-.05.07.27.14.53.21.79m-.82-14.23c.04-.09.07-.18.11-.26.02-.04-.02-.15.08-.18.1-.03.07.09.07.13-.02.23.07.39.32.42.03,0,.03.09.01.13-.06.16-.13.33-.21.5-.02.04-.07.11-.09.11-.07,0-.16,0-.18-.04-.03-.05-.03-.14,0-.2.11-.17.07-.26-.07-.31-.14-.05-.13-.16-.06-.3m-.02,1.39c.01.06-.08.16-.1.16-.07,0-.18,0-.19-.03-.02-.06-.03-.18.05-.23.09-.05.22,0,.24.1m-.4-1.43c.06-.03.14,0,.16.07.03.1-.03.26-.14.32-.07.04-.18-.04-.17-.06.03-.11.02-.27.15-.33m-.11,14.17c.04.18.09.35.14.53,0,.03.04.06.06.07.03.02.07,0,.08.03.02.04-.03.08-.03.12,0,.08,0,.16.02.24.06.23.14.45.2.67.02.1-.01.2-.02.31,0,.04-.04.07-.02.11.02.03.05.03.08.04.03.02.07.03.08.05.05.13.1.27.14.41.01.04-.02.12-.02.11-.07-.04-.15-.08-.22-.14-.04-.04-.03-.16-.08-.2,0,0,0,0-.01,0-.08-.08-.05-.26-.09-.38-.1-.32-.21-.63-.3-.95-.07-.24-.13-.48-.19-.73,0-.01.03-.04.05-.04.02,0,.05.06.06.04.02-.02,0-.1-.02-.13-.14-.26-.17-.53-.15-.8,0-.04-.05-.11-.08-.17-.02-.05-.04-.11-.04-.16,0-.03.05-.06.08-.06.03.01.08.06.09.1.07.31.14.61.22.92m-.18-12.86s.08.04.09.07c.04.1-.07.31-.21.44-.02-.15-.06-.29-.07-.44,0-.06,0-.12,0-.18.04.05.1.09.18.11m-.17-3.99s.01.04,0,.04c0,.02-.02.03-.03.03,0,0-.04,0-.03-.04,0-.05.04-.04.06-.04m-.08,2.38s0-.02.01-.02c.05.03.03.11,0,.2-.05.11-.09.17.09.17.14,0,.09.14.02.25-.04.06-.11.12-.15.18-.02.03,0,.1.03.1.15,0,.16,0,.08.13-.01-.01-.03-.02-.07,0-.03,0-.08,0-.08-.04,0-.06,0-.17.02-.2.1-.13.05-.19,0-.27-.11-.18-.1-.3.04-.49m-.34-2.21s.1.05.07.18c-.02.07-.08.06-.09.05-.02-.04-.02-.1-.03-.15,0-.02.03-.08.05-.07m-.53-.51s.01.06,0,.08c0,.02-.01.05-.02.06-.01,0-.02-.02-.02-.04,0-.03,0-.1.03-.1m-.04.6s.04,0,.03.04c0,.04-.03.07-.04.07-.01,0-.02-.04-.02-.06,0-.01.02-.05.02-.05m-.37-5.13s.02,0,.02.03c0,.04-.03.09-.05.12-.02.04-.06.14-.08.11-.01-.02.02-.08.03-.12.02-.05.05-.13.08-.15m-.11.05s-.05.07-.08.1c0,0-.03-.02-.02-.05.02-.07.07-.04.1-.06m-.19,1.16s0-.03.01-.04c.02-.07.04-.22.07-.21.03.01-.02.15-.05.27-.02.09-.06.35-.12.32-.05-.03.05-.22.08-.34m-.09-.47s.05-.01.04.04c-.01.08-.06.07-.07.06,0-.02-.02-.04,0-.07,0-.02.03-.03.04-.03m-.05,3.5s.03,0,.03,0c0,.04,0,.09,0,.1-.02.2-.07.35-.1.5,0,.03-.03.1-.05.09-.02-.01,0-.07,0-.1.03-.15.06-.29.09-.44,0-.05.01-.1.02-.14m-.21-1.79c.04-.22.1-.39.15-.56,0-.02.01-.04.02-.04,0,0,.01.03,0,.04-.05.21-.11.41-.16.62,0,.01-.02.04-.03.03-.02-.02.01-.09.01-.09m-.04,21.08s.04.05.05.09c.02.06.05.16.02.17-.02,0-.04-.06-.05-.1-.01-.05-.05-.14-.02-.15m-.06,1.44s.06.03.08.08c.02.04.03.09.04.13,0,.05-.02.1-.04.15-.04-.04-.07-.15-.09-.22-.02-.04-.03-.13,0-.14m-.2-21.47s.02.08.01.12c0,.03-.02.09-.04.1-.02,0-.06-.02-.05-.08,0-.08.06-.14.08-.14m-.37-.51s.06.1.05.12c-.06.16-.13.31-.19.47-.05.15-.1.32-.13.48-.06.25-.11.51-.16.76,0,.01-.05-.02-.08.02.04-.2.07-.4.1-.6,0-.02.12-.26-.03-.14,0,0-.03-.06-.03-.08.02-.05.04-.1.07-.14.03-.06.08-.11.1-.18.07-.26.14-.52.21-.78.01-.04.03-.12.01-.13s-.04.07-.05.11c-.03.09-.05.28-.1.26-.04-.02.02-.18.04-.27.03-.2.07-.4.11-.6,0-.03.01-.07.03-.08.02-.01.04.04.04.07,0,.19-.02.38-.03.57,0,.1-.06.24.06.14m-.36.52s.03.11.02.16c0,.03-.05.1-.05.09-.02-.02-.06-.04-.06-.1,0-.05.04-.15.09-.15m0-.48c.02-.08.05-.23.09-.23.04,0,.04.12.02.2-.02.13-.08.31-.13.29-.04-.01,0-.17.02-.26m.34-2.68c.03-.1.08-.32.14-.3.04.02-.02.18-.05.26-.03.09-.07.28-.12.27-.03-.01,0-.13.03-.23m-.1.88c.03-.09.06-.26.11-.25.03,0,.02.13,0,.22-.02.08-.06.19-.1.19-.03,0-.02-.11,0-.15m0,.54c.01.16.05.31.02.46-.02.11-.04.19-.07.21-.02,0-.02-.06-.03-.08-.01-.01-.04.01-.06.01-.03,0-.08.01-.08-.04,0-.05.04-.1.05-.15.03-.12.05-.24.08-.36,0-.04.02-.11.05-.12.02-.01.04.04.04.07m-.27-5.57s.03-.11.06-.11c.03,0,0,.1-.02.14,0,.02-.02.06-.03.06-.02,0,0-.06,0-.1m-.19,1.97c.05-.14.13-.26.18-.4-.15.43-.2.68-.31,1.01-.01.03-.04.09-.06.08-.02,0-.01-.08,0-.11.06-.19.12-.39.19-.57m-.19-.52s.03-.04.04-.04c.01.02.05.03.03.09-.02.05-.05.05-.06.04,0-.02-.02-.06,0-.09m.1-.25s.05-.11.07-.11c.02,0,.05.07,0,.18-.02.06-.06.05-.08.04,0,0,0-.08,0-.12m.24-.12s-.06.06-.06.06c0-.03-.02-.07-.01-.11,0-.03.04-.11.06-.11.03,0,.04.09.01.16m-.33-.74s.03-.03.03-.02c0,.01.02.03,0,.06,0,.02-.02.03-.03.03,0-.01-.03-.02-.01-.06m-.02.43c.04-.17.08-.35.12-.52.02-.07.02-.14.03-.21,0-.06,0-.13.02-.18.03-.05.05.03.08.03.03,0,.05.02.08,0-.08.12-.13.33-.18.49-.04.12-.07.25-.1.37-.01.04-.02.11-.04.12-.02,0-.02-.06-.01-.09m.04.29c.02-.07.06-.19.09-.18.01,0,0,.07-.02.1-.04.1-.07.32-.11.31-.03,0,.01-.14.04-.23m.18,5.11s.04-.09.06-.14c.04-.13.07-.27.1-.4.05-.2.09-.4.14-.6,0-.03.06-.06.08-.05.02,0,.03.08.02.12-.07.23-.14.45-.2.68-.01.05-.02.11-.02.16,0,.07.02.15,0,.19-.02.03-.03-.03-.05-.03,0,0-.03.04-.03.07-.12.42-.24.84-.35,1.26-.01.05-.03.13-.01.15.02.02.05-.05.07-.07.03-.02.07-.07.08-.04.01.04-.02.11-.04.16-.03.08-.06.16-.09.25,0,0,0,.04.02.06-.03.03-.07.13-.09.11-.02-.02,0-.1,0-.15,0-.03-.02-.05-.03-.08-.01-.03-.03-.07-.03-.09.11-.52.24-1.04.38-1.57m-.29-3.23s-.03.12-.05.18c-.03.12-.06.23-.09.35-.02.05-.04.21-.09.2-.04,0,0-.13.01-.16,0-.1.02-.2.03-.29,0-.04,0-.1.02-.13.02-.03.03.04.05.04.01,0,.03-.02.05-.04.03-.04.05-.16.07-.14m-.09-1.26s0,.12,0,.15c0,.05.01.1.01.16,0,.04-.01.13-.03.14-.14.17-.1.32-.1.48,0,.05,0,.15-.03.17-.03.02-.02-.07-.02-.11.01-.21.02-.43.05-.65.01-.08.04-.32.12-.33m-.03-.36s0,.09-.02.13c0,0,0,.02,0,.03,0-.06,0-.15.02-.15m-.12-.09s.04-.11.06-.11c.02,0,.01.08.01.13,0,.09-.05.3,0,.28-.08.11-.12.08-.14.26-.01.09-.07.19-.1.29.02-.09-.04-.14-.02-.21.05-.21.13-.43.2-.64m-.25.95s.06-.05.07-.09c-.02.07-.05.18-.05.2.07.17-.05.24-.11.32-.01.02-.05-.02-.05-.02.04-.14.08-.27.13-.4m-.54.59s.02-.19.07-.19c.05,0,0,.15,0,.2-.01.04-.05.12-.07.11-.02,0,0-.08,0-.12m-.27.66s.05-.11.07-.09c.04.03,0,.18-.02.26-.03.11-.06.26-.1.25-.06-.01.03-.28.05-.42m-.32,1.19s.01-.08.03-.08c.02,0,.01.07,0,.08,0,.02-.03.07-.04.06-.01,0,0-.04,0-.06m-.46-.33c.12-.28.22-.61.33-.92.02-.07.06-.19.09-.18.03,0,.03.14,0,.21-.02.03-.04-.02-.05,0-.14.2-.14.57-.2.86-.03.13-.03.27-.06.4-.02.08-.05.21-.09.22-.03.01-.03-.09-.04-.14,0,0,0-.03,0-.03-.1-.09-.07-.2.03-.42m-.28.53s0,.08,0,.12c0,0-.03.04-.03.04-.01-.03-.05-.05-.03-.12.02-.05.05-.05.06-.04m-.13,1.63s.03-.08.04-.08c.03,0,.06.06.04.14-.01.07-.05.1-.07.09-.02-.01-.02-.1-.02-.15m-.11-.56s.07.08.05.18c-.02.13-.08.23-.12.24-.02,0-.03,0-.04-.02,0-.07-.02-.15-.03-.22.03-.09.09-.14.14-.18m-2.92-10.45c-.28-.06-.13.23-.21.31,0,0-.01,0-.01,0,.1-.08-.07-.38.22-.32m-.25.34s-.03.03-.03.04c.01-.01.03-.02.04-.04-.02.04-.02.08,0,.1-.03-.02-.05-.04-.04-.06-.31.34-.69-.06-.75.41.06-.49.3-.23.78-.46m9.18,48.6s-.08-.07-.13-.1c.04.03.09.07.13.1m.62.51c-.07,0-.16-.06-.26-.15.11.08.22.11.37.04-.05.03-.09.07-.11.12.05,0,.09-.03.12-.12.25.52.18,1.12.66,1.61-.43-.43-1-1.13-.78-1.49m24.06,15.48h0s0,0,0,0c0,0,0,0,0,0m41.37-5.73c-.87.53-1.73,1.16-2.69,1.4-1.4.36-2.76.87-4.2,1.14-1.8.34-3.38,1.39-5.15,1.93-.95.29-1.85.36-2.73.17.48-.17.96-.35,1.43-.53,1.03-.41,2.05-.85,3.05-1.35.93-.47,1.83-.99,2.72-1.55,1.09-.68,2.16-1.4,3.19-2.19.9-.68,1.76-1.41,2.61-2.18.07-.07.14-.14.22-.21.14-.05.27-.15.32-.28.69.51,2.56.55,2.55-.33,0,0,.01,0,.01,0,1.07.75,3.39.88,3.84-.32.11.06.22.09.34.12-.32.22-.64.43-1,.59-.26.11-.61.27-.47.57-1.68-.12-2.61,2.13-4.06,3.01m4.68-2.7s.09-.01.15-.03c-.05.02-.1.03-.15.03m14.01-11.93s0-.02-.01-.02c.02,0,.04-.01.07-.03-.02.01-.04.03-.06.05.02.02.03.02.06-.05-.07.31-.11.79.17.95-.26-.15-.42-.69-.23-.9m5.52-26.15h.05-.05m4.85-2.02h0m-.04-1.85s.03-.08.05-.12c-.02.04-.04.08-.05.12m-3.02-10.17s.05-.09.07-.13c0,.02-.02.04-.07.13m-.2,1.31v-.15s0,0,0,0h0s0,.15,0,.15m.15.45s-.02.03-.03.05c.01-.02.02-.03.03-.05m2.31,16.95s-.02.03-.02.04c0-.01,0-.03.02-.04m.84-5.86s-.03.03-.04.04c.01-.01.03-.03.04-.04m.36-5.93s0,0,0,0h0s0,0,0,0m-2.01-15.6s-.06-.01-.1-.06c.04.04.07.05.1.06m-1.65-1.19c0-.06,0-.13-.02-.21.03.11.03.17.02.21m-.44,11.16s-.05-.1-.04-.26c0,.12.02.21.04.26m-1.21,12.15c-.11-.02-.24-.03-.4,0,.22-.02.34-.03.4,0m-2.65-1.97s.04-.02.06-.05c-.02.03-.04.04-.06.05m-.17-1.36s-.06.05-.08.08c.02-.04.04-.07.08-.08m.03,21.27c.01.11.04.19-.03.26.02-.1.03-.2.03-.26m-.49,5.48s.07-.01.11,0c-.04-.01-.07,0-.11,0m.74-1.56c.13-.24.28-.41.41-.33-.04-.08.03-.18.14-.28-.09.1-.13.21-.08.33-.02-.03-.04-.04-.06-.05.01.02.03.04.06.06-.21-.01-.35.1-.47.27m.79-.8s.08-.05.12-.07c-.04.02-.08.05-.12.07m-.22.16s.05-.04.07-.06c-.02.02-.05.04-.07.06"/>
  <path class="cls-2" d="m12.4,21.92c-.34.06-.96-.34-1.3-.85-.4-.57-.4-1.02-.06-1.13,11.36-2.15,26.17-3,41.83-3.45,1.36-2.09,2.15-3.28,2.15-3.34.17-.28.68-.11,1.19.34.45.51.73,1.07.57,1.36l-1.02,1.53c4.3-.11,8.65-.17,12.95-.28,10.63-.23,21.31-.51,31.15-1.02.4-.06.96.4,1.3.96.28.45.28.91,0,.96l-4.64,2.03c-.34.11-.9-.17-1.3-.68-.28-.4-.45-.79-.34-1.02-8.08.34-16.51.51-24.99.73-5.14.11-10.34.23-15.43.34-7.29,11.36-29.34,45.79-29,46.18.11.11,2.71-2.83,2.71-2.83.23-.23.79-.06,1.24.45.45.45.68,1.07.45,1.3,0,0-3.5,3.96-5.43,1.7-1.3-1.58,18.94-33.75,27.13-46.69-14.7.45-28.55,1.3-39.17,3.39"/>
  <path class="cls-2" d="m31.87,40.91c0-1.7.49-3.92,1.97-5.68,2.5-2.99,11.32-10.56,30.36-10.56.91,0,1.85,0,2.8.04,13.72.53,18.89,5.72,18.89,10.92,0,2.76-1.44,5.51-3.84,7.59-6.02,5.19-16.35,7.06-20.93,8.16-.68,1.12-1.38,2.31-2.08,3.5,2.01.62,4.45,1.4,7.15,2.35,7.06,2.5,16.11,6.85,20.02,9.44,3.88,2.61,6.7,5.62,7.23,6.89.11.23.15.42.15.55,0,.34-.25.42-.47.42-.15,0-.28-.04-.28-.04-.11-.02-1.19-5.66-13.82-11.11-7.38-3.18-14.95-5.87-20.5-7.59-3.1,5.22-6.04,10.05-6.34,10.05-.49-.06-1.51-1.65-1.51-2.69,0-.11.02-.21.04-.3.11-.38,2.04-3.86,4.41-8.06-2.21-.62-3.84-.98-4.64-1.02h-.36c-2.44,0-5.62.98-7.91.98-.32,0-.61-.02-.89-.06-1.17-.19-2.14-1.1-2.14-1.91,0-.72.76-1.36,2.84-1.36.38,0,.83.02,1.31.06,4.41.47,5.49,1.19,7.51,1.19.72,0,1.55-.09,2.69-.32,1.42-.28,2.5-.49,3.35-.64,3.31-5.81,6.87-11.96,7.65-13.25,0,0,.59-.72,1.48-.72.53,0,1.12.25,1.78,1.02.19.21.25.47.25.74,0,1.25-1.61,2.99-2.33,4.16-1.51,2.42-2.04,3.35-3.75,6.28,2.46-.74,5.43-1.57,5.43-1.57,11.09-3.35,15.35-8.69,15.35-13.15,0-1.99-.85-3.82-2.33-5.19-2.74-2.54-9.97-4.47-18.26-4.47-6.17,0-12.95,1.08-18.89,3.75-9.56,4.28-11.05,9.33-11.05,12.04,0,1.21.3,1.97.3,1.97-.36-.15-.66-1.12-.66-2.42m21.9,12.27s.7.17,1.89.51l.72-1.25-2.61.74Z"/>
</svg>